<svg xmlns="http://www.w3.org/2000/svg" xmlns:xlink="http://www.w3.org/1999/xlink" viewBox="0 0 1400 980"><defs><style>.a{fill:none;}.b{fill:#1c333b;}.c{fill:#fff;}.d{fill:#fafaf8;}.e{fill:#823f0d;}.f{fill:#005444;}.g{fill:#004133;}.h{fill:#2989af;}.i{fill:#75b6e0;}.j{clip-path:url(#a);}</style><clipPath id="a"><rect class="a" x="1132.82" y="469.33" width="267.2" height="513.08"/></clipPath></defs><rect class="b" x="0.02" y="0.04" width="1400" height="980"/><rect class="c" x="0.02" y="671.73" width="1400" height="308.3"/><path class="d" d="M748,26.87A5.74,5.74,0,1,0,753.75,21,5.81,5.81,0,0,0,748,26.87Z"/><path class="d" d="M942.5,76.22a3.6,3.6,0,1,0,3.6-3.7A3.64,3.64,0,0,0,942.5,76.22Z"/><path class="d" d="M978.11,224.64A3.6,3.6,0,1,0,981.7,221,3.64,3.64,0,0,0,978.11,224.64Z"/><path class="d" d="M266.34,666.36a3.6,3.6,0,1,0,3.6-3.7A3.65,3.65,0,0,0,266.34,666.36Z"/><path class="d" d="M602.24,93.48a3.6,3.6,0,1,0,3.6-3.69A3.64,3.64,0,0,0,602.24,93.48Z"/><path class="d" d="M590.91,17.29a3.6,3.6,0,1,0,3.6-3.69A3.64,3.64,0,0,0,590.91,17.29Z"/><path class="d" d="M517,74a3.6,3.6,0,1,0,3.59-3.69A3.64,3.64,0,0,0,517,74Z"/><path class="d" d="M654.61,62.93a2.19,2.19,0,1,0,2.18-2.24A2.21,2.21,0,0,0,654.61,62.93Z"/><path class="d" d="M904.53,49.77a2.19,2.19,0,1,0,2.19-2.24A2.21,2.21,0,0,0,904.53,49.77Z"/><path class="d" d="M773.63,93.49a2.19,2.19,0,1,0,2.18-2.24A2.2,2.2,0,0,0,773.63,93.49Z"/><path class="d" d="M926.94,105.7a2.19,2.19,0,1,0,2.18-2.24A2.21,2.21,0,0,0,926.94,105.7Z"/><path class="d" d="M598.11,427.22a2.19,2.19,0,1,0,2.18-2.24A2.21,2.21,0,0,0,598.11,427.22Z"/><path class="d" d="M510.43,133.43a2.19,2.19,0,1,0,2.18-2.24A2.21,2.21,0,0,0,510.43,133.43Z"/><path class="d" d="M798.2,555.41a3.6,3.6,0,1,0,3.6-3.69A3.66,3.66,0,0,0,798.2,555.41Z"/><path class="d" d="M754.8,623.82a5.73,5.73,0,1,0,5.73-5.88A5.8,5.8,0,0,0,754.8,623.82Z"/><path class="d" d="M921.47,712.21a3.6,3.6,0,1,0,3.6-3.7A3.65,3.65,0,0,0,921.47,712.21Z"/><path class="d" d="M621.1,755.12a3.6,3.6,0,1,0,3.6-3.69A3.65,3.65,0,0,0,621.1,755.12Z"/><path class="d" d="M567.49,595.89a3.6,3.6,0,1,0,3.6-3.69A3.64,3.64,0,0,0,567.49,595.89Z"/><path class="d" d="M925.07,426.82a2.19,2.19,0,1,0,2.18-2.24A2.22,2.22,0,0,0,925.07,426.82Z"/><path class="d" d="M877.23,491.22a3.6,3.6,0,1,0,3.6-3.69A3.64,3.64,0,0,0,877.23,491.22Z"/><path class="d" d="M506.88,399.27a2.19,2.19,0,1,0,2.19-2.24A2.21,2.21,0,0,0,506.88,399.27Z"/><path class="d" d="M773.13,489a2.18,2.18,0,1,0,2.18-2.24A2.2,2.2,0,0,0,773.13,489Z"/><path class="d" d="M915.73,564.22a2.19,2.19,0,1,0,2.19-2.24A2.21,2.21,0,0,0,915.73,564.22Z"/><path class="d" d="M620.33,541.52a2.19,2.19,0,1,0,2.19-2.24A2.21,2.21,0,0,0,620.33,541.52Z"/><path class="d" d="M447.21,452.17a2.19,2.19,0,1,0,2.19-2.24A2.21,2.21,0,0,0,447.21,452.17Z"/><path class="d" d="M771,717.38a2.19,2.19,0,1,0,2.18-2.24A2.22,2.22,0,0,0,771,717.38Z"/><path class="d" d="M78.56,358.41A9.34,9.34,0,1,1,87.9,368,9.46,9.46,0,0,1,78.56,358.41Z"/><path class="d" d="M196,338.86a5.74,5.74,0,1,1,5.74,5.88A5.81,5.81,0,0,1,196,338.86Z"/><path class="d" d="M446.35,675.09a5.74,5.74,0,1,1,5.73,5.88A5.8,5.8,0,0,1,446.35,675.09Z"/><path class="d" d="M264.83,372a3.6,3.6,0,1,1,3.6,3.69A3.64,3.64,0,0,1,264.83,372Z"/><path class="d" d="M304.12,776.69a3.6,3.6,0,1,1,3.6,3.69A3.64,3.64,0,0,1,304.12,776.69Z"/><path class="d" d="M246.49,691.4a3.6,3.6,0,1,1,3.6,3.69A3.65,3.65,0,0,1,246.49,691.4Z"/><path class="d" d="M89.27,510.69a3.6,3.6,0,1,1,3.59,3.69A3.64,3.64,0,0,1,89.27,510.69Z"/><path class="d" d="M15,385.32A3.6,3.6,0,1,1,18.59,389,3.64,3.64,0,0,1,15,385.32Z"/><path class="d" d="M29.43,324.43a2.19,2.19,0,1,1,2.18,2.24A2.21,2.21,0,0,1,29.43,324.43Z"/><path class="d" d="M133.68,295.28a2.19,2.19,0,1,1,2.18,2.24A2.2,2.2,0,0,1,133.68,295.28Z"/><path class="d" d="M94.14,419.63a2.19,2.19,0,1,1,2.18,2.24A2.21,2.21,0,0,1,94.14,419.63Z"/><path class="d" d="M353.52,419.63a2.19,2.19,0,1,1,2.18,2.24A2.21,2.21,0,0,1,353.52,419.63Z"/><path class="d" d="M418.16,782.48a2.18,2.18,0,1,1,2.18,2.24A2.2,2.2,0,0,1,418.16,782.48Z"/><path class="d" d="M375.93,338.86a2.19,2.19,0,1,1,2.18,2.24A2.2,2.2,0,0,1,375.93,338.86Z"/><path class="d" d="M350.51,593.65a2.18,2.18,0,1,1,2.18,2.24A2.2,2.2,0,0,1,350.51,593.65Z"/><path class="d" d="M484.81,468.94a2.19,2.19,0,1,1,2.18,2.24A2.2,2.2,0,0,1,484.81,468.94Z"/><path class="d" d="M613.94,729.71a2.19,2.19,0,1,1,2.18,2.24A2.21,2.21,0,0,1,613.94,729.71Z"/><path class="d" d="M205.32,544.23a2.19,2.19,0,1,1,2.18,2.24A2.21,2.21,0,0,1,205.32,544.23Z"/><path class="d" d="M330.8,474A2.18,2.18,0,1,1,333,476.2,2.21,2.21,0,0,1,330.8,474Z"/><path class="d" d="M181.16,232.34a2.18,2.18,0,1,1,2.18,2.24A2.2,2.2,0,0,1,181.16,232.34Z"/><path class="d" d="M131.49,624.76a2.19,2.19,0,1,1,2.19,2.24A2.22,2.22,0,0,1,131.49,624.76Z"/><path class="d" d="M96.32,221.11a2.19,2.19,0,1,1,2.19,2.24A2.21,2.21,0,0,1,96.32,221.11Z"/><path class="d" d="M510.43,823.49a2.19,2.19,0,1,1,2.18,2.24A2.21,2.21,0,0,1,510.43,823.49Z"/><path class="d" d="M331.14,183.84a9.34,9.34,0,1,1,9.33,9.57A9.45,9.45,0,0,1,331.14,183.84Z"/><path class="d" d="M453.19,71.12a9.34,9.34,0,1,1,9.33,9.57A9.46,9.46,0,0,1,453.19,71.12Z"/><path class="d" d="M361,105.83a5.74,5.74,0,1,1,5.74,5.88A5.81,5.81,0,0,1,361,105.83Z"/><path class="d" d="M64.92,170.38a3.6,3.6,0,1,1,3.6,3.69A3.64,3.64,0,0,1,64.92,170.38Z"/><path class="d" d="M114.79,19.08a3.6,3.6,0,1,1,3.6,3.69A3.64,3.64,0,0,1,114.79,19.08Z"/><path class="d" d="M46.46,47.53a3.6,3.6,0,1,1,3.6,3.69A3.65,3.65,0,0,1,46.46,47.53Z"/><path class="d" d="M25.83,97.73a3.6,3.6,0,1,1,3.6,3.69A3.64,3.64,0,0,1,25.83,97.73Z"/><path class="d" d="M672.48,575.77a3.6,3.6,0,1,1,3.6,3.69A3.65,3.65,0,0,1,672.48,575.77Z"/><path class="d" d="M438,489a2.19,2.19,0,1,1,2.19,2.24A2.21,2.21,0,0,1,438,489Z"/><path class="d" d="M313.63,133.49a2.18,2.18,0,1,1,2.18,2.24A2.22,2.22,0,0,1,313.63,133.49Z"/><path class="d" d="M447.21,201.15a2.19,2.19,0,1,1,2.19,2.24A2.21,2.21,0,0,1,447.21,201.15Z"/><path class="d" d="M122.43,183.83a2.18,2.18,0,1,1,2.18,2.24A2.22,2.22,0,0,1,122.43,183.83Z"/><path class="d" d="M578.26,82.21a2.19,2.19,0,1,1,2.18,2.24A2.22,2.22,0,0,1,578.26,82.21Z"/><path class="d" d="M550.37,476.19a2.19,2.19,0,1,1,2.19,2.25A2.22,2.22,0,0,1,550.37,476.19Z"/><path class="d" d="M22.8,544.23A2.18,2.18,0,1,1,25,546.47,2.2,2.2,0,0,1,22.8,544.23Z"/><path class="d" d="M242.13,186.08a2.18,2.18,0,1,1,2.18,2.23A2.21,2.21,0,0,1,242.13,186.08Z"/><path class="d" d="M223.39,109.52a3.6,3.6,0,1,1,3.59,3.69A3.64,3.64,0,0,1,223.39,109.52Z"/><path class="d" d="M14.29,190.86a2.19,2.19,0,1,1,2.19,2.24A2.21,2.21,0,0,1,14.29,190.86Z"/><path class="d" d="M217.65,28.06a2.18,2.18,0,1,1,2.18,2.24A2.21,2.21,0,0,1,217.65,28.06Z"/><path class="d" d="M331.14,47.53a2.19,2.19,0,1,1,2.18,2.24A2.21,2.21,0,0,1,331.14,47.53Z"/><path class="d" d="M422.5,47.53a2.19,2.19,0,1,1,2.19,2.24A2.22,2.22,0,0,1,422.5,47.53Z"/><path class="d" d="M179,464.46a2.19,2.19,0,1,1,2.19,2.24A2.22,2.22,0,0,1,179,464.46Z"/><path class="d" d="M146.89,86.75A2.19,2.19,0,1,1,149.07,89,2.21,2.21,0,0,1,146.89,86.75Z"/><path class="d" d="M112.88,717.39a2.19,2.19,0,1,1,2.18,2.24A2.22,2.22,0,0,1,112.88,717.39Z"/><path class="d" d="M568.9,774.45a2.19,2.19,0,1,1,2.19,2.24A2.21,2.21,0,0,1,568.9,774.45Z"/><path class="d" d="M407.61,161.71a2.19,2.19,0,1,1,2.18,2.24A2.21,2.21,0,0,1,407.61,161.71Z"/><path class="d" d="M518.72,551.81a2.19,2.19,0,1,1,2.18,2.24A2.22,2.22,0,0,1,518.72,551.81Z"/><path class="d" d="M262.64,468.94a2.19,2.19,0,1,1,2.19,2.24A2.22,2.22,0,0,1,262.64,468.94Z"/><path class="d" d="M315.81,566.46A2.19,2.19,0,1,1,318,568.7,2.21,2.21,0,0,1,315.81,566.46Z"/><path class="d" d="M1188.93,26.87a5.74,5.74,0,1,0,5.73-5.89A5.81,5.81,0,0,0,1188.93,26.87Z"/><path class="d" d="M1303.24,116.55a5.74,5.74,0,1,0,5.73-5.88A5.8,5.8,0,0,0,1303.24,116.55Z"/><path class="d" d="M1383.41,76.22a3.6,3.6,0,1,0,3.59-3.7A3.64,3.64,0,0,0,1383.41,76.22Z"/><path class="d" d="M1256.75,72.52a3.6,3.6,0,1,0,3.6-3.69A3.65,3.65,0,0,0,1256.75,72.52Z"/><path class="d" d="M1139.63,103.46a3.6,3.6,0,1,0,3.6-3.69A3.64,3.64,0,0,0,1139.63,103.46Z"/><path class="d" d="M1031.82,17.29a3.6,3.6,0,1,0,3.6-3.69A3.64,3.64,0,0,0,1031.82,17.29Z"/><path class="d" d="M942.31,269.79a3.6,3.6,0,1,0,3.6-3.69A3.64,3.64,0,0,0,942.31,269.79Z"/><path class="d" d="M1019.17,164a2.18,2.18,0,1,0,2.18-2.24A2.2,2.2,0,0,0,1019.17,164Z"/><path class="d" d="M1086.19,150.85a2.19,2.19,0,1,0,2.19-2.24A2.21,2.21,0,0,0,1086.19,150.85Z"/><path class="d" d="M1095.52,62.93a2.19,2.19,0,1,0,2.18-2.24A2.21,2.21,0,0,0,1095.52,62.93Z"/><path class="d" d="M1345.44,49.77a2.19,2.19,0,1,0,2.18-2.24A2.21,2.21,0,0,0,1345.44,49.77Z"/><path class="d" d="M1214.53,93.49a2.19,2.19,0,1,0,2.19-2.24A2.21,2.21,0,0,0,1214.53,93.49Z"/><path class="d" d="M1367.85,105.7a2.19,2.19,0,1,0,2.18-2.24A2.21,2.21,0,0,0,1367.85,105.7Z"/><path class="d" d="M1039,427.22a2.19,2.19,0,1,0,2.18-2.24A2.21,2.21,0,0,0,1039,427.22Z"/><path class="d" d="M951.34,133.43a2.19,2.19,0,1,0,2.18-2.24A2.21,2.21,0,0,0,951.34,133.43Z"/><path class="d" d="M1239.11,555.41a3.6,3.6,0,1,0,3.6-3.69A3.65,3.65,0,0,0,1239.11,555.41Z"/><path class="d" d="M1160.44,195.75a2.19,2.19,0,1,0,2.18-2.24A2.2,2.2,0,0,0,1160.44,195.75Z"/><path class="d" d="M1282.08,299.73a2.19,2.19,0,1,0,2.19-2.24A2.21,2.21,0,0,0,1282.08,299.73Z"/><path class="d" d="M1135.26,265.62a2.19,2.19,0,1,0,2.18-2.24A2.22,2.22,0,0,0,1135.26,265.62Z"/><path class="d" d="M1074.35,282.8a2.19,2.19,0,1,0,2.18-2.23A2.22,2.22,0,0,0,1074.35,282.8Z"/><path class="d" d="M1349.49,195.75a9.34,9.34,0,1,0,9.33-9.58A9.46,9.46,0,0,0,1349.49,195.75Z"/><path class="d" d="M1234.5,254.71a5.74,5.74,0,1,0,5.74-5.88A5.81,5.81,0,0,0,1234.5,254.71Z"/><path class="d" d="M1319.51,346.05a5.74,5.74,0,1,0,5.73-5.88A5.81,5.81,0,0,0,1319.51,346.05Z"/><path class="d" d="M1177.44,610.13a5.74,5.74,0,1,0,5.74-5.88A5.81,5.81,0,0,0,1177.44,610.13Z"/><path class="d" d="M1362.38,712.21a3.6,3.6,0,1,0,3.6-3.7A3.65,3.65,0,0,0,1362.38,712.21Z"/><path class="d" d="M1102,366.06a3.6,3.6,0,1,0,3.59-3.69A3.65,3.65,0,0,0,1102,366.06Z"/><path class="d" d="M1163.83,430.91a3.6,3.6,0,1,0,3.6-3.69A3.64,3.64,0,0,0,1163.83,430.91Z"/><path class="d" d="M1062,755.12a3.6,3.6,0,1,0,3.6-3.69A3.64,3.64,0,0,0,1062,755.12Z"/><path class="d" d="M1031.82,367.51a3.6,3.6,0,1,0,3.6-3.69A3.65,3.65,0,0,0,1031.82,367.51Z"/><path class="d" d="M1008.4,595.89a3.6,3.6,0,1,0,3.59-3.69A3.64,3.64,0,0,0,1008.4,595.89Z"/><path class="d" d="M1371.26,271.94a2.19,2.19,0,1,0,2.19-2.24A2.21,2.21,0,0,0,1371.26,271.94Z"/><path class="d" d="M1366,426.82a2.19,2.19,0,1,0,2.18-2.24A2.21,2.21,0,0,0,1366,426.82Z"/><path class="d" d="M1318.13,491.22a3.6,3.6,0,1,0,3.6-3.69A3.64,3.64,0,0,0,1318.13,491.22Z"/><path class="d" d="M1175.26,267.16a2.19,2.19,0,1,0,2.18-2.24A2.21,2.21,0,0,0,1175.26,267.16Z"/><path class="d" d="M947.79,399.27A2.19,2.19,0,1,0,950,397,2.2,2.2,0,0,0,947.79,399.27Z"/><path class="d" d="M1097.64,391.89a2.19,2.19,0,1,0,2.18-2.24A2.2,2.2,0,0,0,1097.64,391.89Z"/><path class="d" d="M1177.12,367.52a2.19,2.19,0,1,0,2.18-2.25A2.21,2.21,0,0,0,1177.12,367.52Z"/><path class="d" d="M1214,489a2.19,2.19,0,1,0,2.19-2.24A2.21,2.21,0,0,0,1214,489Z"/><path class="d" d="M1230.88,351.94a2.18,2.18,0,1,0,2.18-2.25A2.21,2.21,0,0,0,1230.88,351.94Z"/><path class="d" d="M1356.64,564.22a2.19,2.19,0,1,0,2.18-2.24A2.21,2.21,0,0,0,1356.64,564.22Z"/><path class="d" d="M1125.9,323.45a2.18,2.18,0,1,0,2.18-2.24A2.2,2.2,0,0,0,1125.9,323.45Z"/><path class="d" d="M1061.24,541.52a2.19,2.19,0,1,0,2.18-2.24A2.21,2.21,0,0,0,1061.24,541.52Z"/><path class="d" d="M1380.8,234a2.19,2.19,0,1,0,2.18-2.24A2.21,2.21,0,0,0,1380.8,234Z"/><path class="d" d="M1211.93,717.38a2.18,2.18,0,1,0,2.18-2.24A2.21,2.21,0,0,0,1211.93,717.38Z"/><path class="d" d="M925.72,468.94a2.18,2.18,0,1,1,2.18,2.24A2.2,2.2,0,0,1,925.72,468.94Z"/><path class="d" d="M1054.84,729.71A2.19,2.19,0,1,1,1057,732,2.22,2.22,0,0,1,1054.84,729.71Z"/><path class="d" d="M951.34,823.49a2.19,2.19,0,1,1,2.18,2.24A2.21,2.21,0,0,1,951.34,823.49Z"/><path class="d" d="M1113.39,575.77a3.6,3.6,0,1,1,3.6,3.69A3.65,3.65,0,0,1,1113.39,575.77Z"/><path class="d" d="M1009.81,774.45a2.19,2.19,0,1,1,2.18,2.24A2.21,2.21,0,0,1,1009.81,774.45Z"/><path class="d" d="M959.63,551.81a2.19,2.19,0,1,1,2.18,2.24A2.22,2.22,0,0,1,959.63,551.81Z"/><polygon class="e" points="207.8 548.67 203.92 548.67 205.13 539 206.55 539 207.8 548.67"/><path class="f" d="M227.47,538.88c-6-1.57-9.46-11-9.46-11A13.23,13.23,0,0,0,205.62,519c-7.6,0-11.64,9-11.67,9.05-.16.41-3.32,8.53-10,12.36C188.67,541.5,220.63,544.55,227.47,538.88Z"/><path class="g" d="M213.91,534.47a9.24,9.24,0,0,1-.46-5.1,12,12,0,0,0,6.17,4.34,11,11,0,0,1-.71-3.83c-.47-1-.7-1.64-.7-1.64-1.08-3-4.87-9-12.6-9s-11.82,9.19-11.85,9.2-.36.91-.93,2a9.87,9.87,0,0,1-1.2,2.6,16.29,16.29,0,0,0,7-4,31.63,31.63,0,0,1-1.64,5.65,21.86,21.86,0,0,0,5.95-4.43s.71,4.39,2.58,5.36a13.88,13.88,0,0,0,2.49-5.36A20.82,20.82,0,0,0,213.91,534.47Z"/><path class="f" d="M222.68,526.06c-4.22-1.1-7.13-7.82-7.54-8.86-.49,0-8.83-5.2-8.83-5.2l-8.88,4.92s-2.86,7.33-8.13,10.34c3.65.8,5.36,0,5.36,0a10.53,10.53,0,0,1-1.51,4.46,14.77,14.77,0,0,0,6.23-3.55,28.65,28.65,0,0,1-1.48,5,19.4,19.4,0,0,0,5.33-4s.62,3.92,2.3,4.79a12.41,12.41,0,0,0,2.23-4.79,18.35,18.35,0,0,0,5.3,3.72,8.32,8.32,0,0,1-.41-4.56,10.71,10.71,0,0,0,5.51,3.88,8.85,8.85,0,0,1-.41-5.14S219.71,528.47,222.68,526.06Z"/><path class="g" d="M215.14,517.21c-.49,0-8.83-5.2-8.83-5.2l-8.88,4.92s-.19.48-.55,1.25a10,10,0,0,1-1.33,3.4,16.14,16.14,0,0,0,6.54-3,21.17,21.17,0,0,1-1.23,4.39,26.2,26.2,0,0,0,5-3.47H206a18.24,18.24,0,0,0,5.15,3.24,6.2,6.2,0,0,1-.27-3.94,10.28,10.28,0,0,0,5.45,3.27,7.05,7.05,0,0,1-.71-3.68C215.4,517.82,215.22,517.41,215.14,517.21Z"/><path class="f" d="M215.21,520.88a6.07,6.07,0,0,1-.6-3.51s1.64.54,3.88-1.28c-4-1.6-7.26-9.75-8-11.64-.32-.92-2.39-3.33-4.64-3.33s-3.81,2.11-4.41,3.27c-.88,2.06-4.68,10.62-8.17,12.61a13.65,13.65,0,0,0,4.62.3,8.8,8.8,0,0,1-1.21,3.16,14.4,14.4,0,0,0,5.82-2.67,20,20,0,0,1-1.09,3.9,23,23,0,0,0,4.48-3.09H206a16.3,16.3,0,0,0,4.57,2.88,5.56,5.56,0,0,1-.24-3.51A9.42,9.42,0,0,0,215.21,520.88Z"/><path class="g" d="M210.5,504.44c-.32-.91-2.39-3.32-4.64-3.32s-3.81,2.1-4.41,3.26c-.09.22-.22.51-.37.85a6.44,6.44,0,0,0,1.9-.52,12.7,12.7,0,0,1-.39,2.25,4,4,0,0,0,2.09-2,6.21,6.21,0,0,0,1.41,2.07,14.94,14.94,0,0,1,1.13-2,2.29,2.29,0,0,0,2.09,1.79c-.32-.76-.64-1.22-.26-2a15.44,15.44,0,0,0,1.74.27C210.67,504.88,210.58,504.63,210.5,504.44Z"/><path class="f" d="M199,504.33c2.18-1.25,4.63-4.57,7-12,2.41,7.35,4.86,11,6.77,11.51-1.23,1-2.8.66-4.08.41-.34.67-.06,1.09.22,1.75a2,2,0,0,1-1.85-1.58,13.79,13.79,0,0,0-1,1.75,5.49,5.49,0,0,1-1.23-1.83,3.63,3.63,0,0,1-1.85,1.75h0a12,12,0,0,0,.34-2h0A6.61,6.61,0,0,1,199,504.33Z"/><polygon class="e" points="288.84 556.92 283.62 556.91 285.27 543.91 287.19 543.91 288.84 556.92"/><path class="f" d="M315.35,543.82c-8.06-2.14-12.7-14.82-12.7-14.82-1.42-4-6.41-11.94-16.65-12s-15.69,12.14-15.73,12.15c-.22.56-4.51,11.48-13.56,16.61C263.11,547.21,306.12,551.42,315.35,543.82Z"/><path class="g" d="M297.11,537.83a12.58,12.58,0,0,1-.61-6.86,16.18,16.18,0,0,0,8.3,5.86,14.66,14.66,0,0,1-.95-5.15c-.62-1.34-.94-2.21-.94-2.21-1.43-4.11-6.52-12.14-16.92-12.17S270,529.64,270,529.65a29.63,29.63,0,0,1-1.26,2.75,13.1,13.1,0,0,1-1.62,3.5,22.2,22.2,0,0,0,9.4-5.34,42.83,42.83,0,0,1-2.23,7.59,29,29,0,0,0,8-5.94s.93,5.91,3.46,7.22a18.61,18.61,0,0,0,3.36-7.2A28,28,0,0,0,297.11,537.83Z"/><path class="f" d="M309,526.54c-5.69-1.5-9.58-10.54-10.13-11.95-.65,0-11.87-7-11.87-7l-12,6.6s-3.88,9.85-11,13.89c4.9,1.09,7.2.09,7.2.09a14.16,14.16,0,0,1-2,6,19.93,19.93,0,0,0,8.4-4.77,39.28,39.28,0,0,1-2,6.79,26.24,26.24,0,0,0,7.18-5.32s.83,5.28,3.08,6.46a16.74,16.74,0,0,0,3-6.44,24.83,24.83,0,0,0,7.12,5,11.08,11.08,0,0,1-.54-6.13,14.47,14.47,0,0,0,7.41,5.23,11.87,11.87,0,0,1-.54-6.91S304.94,529.78,309,526.54Z"/><path class="g" d="M298.82,514.6c-.65,0-11.87-7-11.87-7l-12,6.6s-.26.65-.76,1.68a12.91,12.91,0,0,1-1.8,4.57,21.6,21.6,0,0,0,8.82-4,29.49,29.49,0,0,1-1.66,5.91,35.3,35.3,0,0,0,6.78-4.66h.2a24.65,24.65,0,0,0,6.92,4.37,8.37,8.37,0,0,1-.36-5.31s2.16,3,7.33,4.43a9.54,9.54,0,0,1-.94-5C299.17,515.43,298.93,514.87,298.82,514.6Z"/><path class="f" d="M298.9,519.55a8.3,8.3,0,0,1-.8-4.72s2.21.72,5.23-1.72c-5.37-2.17-9.74-13.15-10.71-15.7-.44-1.23-3.21-4.48-6.24-4.49s-5.14,2.82-5.94,4.38c-1.19,2.78-6.34,14.28-11,16.95a18.31,18.31,0,0,0,6.22.42,12,12,0,0,1-1.64,4.24,19,19,0,0,0,7.84-3.57,26.24,26.24,0,0,1-1.48,5.25,31,31,0,0,0,6-4.14h.16a21.73,21.73,0,0,0,6.15,3.89,7.54,7.54,0,0,1-.32-4.73A12.74,12.74,0,0,0,298.9,519.55Z"/><path class="g" d="M292.62,497.4c-.44-1.23-3.21-4.48-6.24-4.49s-5.14,2.82-5.94,4.38c-.13.3-.3.69-.51,1.15a8.57,8.57,0,0,0,2.56-.71,18,18,0,0,1-.52,3,5.45,5.45,0,0,0,2.82-2.65,8.34,8.34,0,0,0,1.88,2.79,20,20,0,0,1,1.53-2.66,3.05,3.05,0,0,0,2.8,2.41c-.42-1-.85-1.64-.33-2.66a23.33,23.33,0,0,0,2.34.38C292.85,498,292.72,497.66,292.62,497.4Z"/><path class="f" d="M277.08,497.21c2.94-1.67,6.25-6.14,9.51-16.14,3.22,9.91,6.52,14.83,9.08,15.52-1.65,1.34-3.77.88-5.49.54-.45.89-.08,1.45.29,2.35a2.71,2.71,0,0,1-2.48-2.13,17.4,17.4,0,0,0-1.35,2.35,7.42,7.42,0,0,1-1.66-2.46,4.8,4.8,0,0,1-2.49,2.34h0a15.9,15.9,0,0,0,.46-2.68h0A8.86,8.86,0,0,1,277.08,497.21Z"/><polygon class="e" points="251.37 563.8 244.16 563.78 246.44 545.82 249.1 545.83 251.37 563.8"/><path class="f" d="M288,545.71c-11.14-3-17.55-20.47-17.55-20.47-1.95-5.58-8.84-16.5-23-16.54s-21.69,16.76-21.75,16.77c-.3.77-6.22,15.86-18.74,22.94C215.83,550.38,275.24,556.21,288,545.71Z"/><path class="g" d="M262.8,537.43A17.26,17.26,0,0,1,262,528a22.33,22.33,0,0,0,11.46,8.1,20.15,20.15,0,0,1-1.3-7.12c-.86-1.85-1.3-3-1.3-3-2-5.68-9-16.77-23.37-16.81s-22,17-22.1,17.05a36.7,36.7,0,0,1-1.74,3.8,17.89,17.89,0,0,1-2.24,4.83,30.45,30.45,0,0,0,13-7.37,59.13,59.13,0,0,1-3.07,10.49,40.63,40.63,0,0,0,11.1-8.21s1.28,8.17,4.76,10a25.65,25.65,0,0,0,4.65-10A38.58,38.58,0,0,0,262.8,537.43Z"/><path class="f" d="M279.16,521.84c-7.86-2.07-13.23-14.57-14-16.51-.9,0-16.39-9.72-16.39-9.72l-16.53,9.12s-5.36,13.6-15.17,19.17c6.77,1.51,9.95.13,9.95.13a19.42,19.42,0,0,1-2.83,8.29,27.53,27.53,0,0,0,11.61-6.58,52.61,52.61,0,0,1-2.77,9.37,35.94,35.94,0,0,0,9.92-7.34s1.15,7.3,4.26,8.92a23.14,23.14,0,0,0,4.17-8.89,34.32,34.32,0,0,0,9.83,6.93,15.49,15.49,0,0,1-.74-8.47,20,20,0,0,0,10.23,7.23c-1.11-2.67-1.55-7.21-.74-9.54C270,524,273.61,526.31,279.16,521.84Z"/><path class="g" d="M265.17,505.34c-.9,0-16.39-9.71-16.39-9.71l-16.53,9.11s-.36.9-1.05,2.31c-.51,2.26-1.43,5-2.48,6.32a29.86,29.86,0,0,0,12.18-5.55,40.87,40.87,0,0,1-2.3,8.16,48.82,48.82,0,0,0,9.37-6.43h.27a33.85,33.85,0,0,0,9.56,6,11.58,11.58,0,0,1-.49-7.33s3,4.12,10.12,6.12a13.39,13.39,0,0,1-1.3-6.85C265.65,506.49,265.33,505.71,265.17,505.34Z"/><path class="f" d="M265.28,512.18a11.41,11.41,0,0,1-1.1-6.53s3.05,1,7.23-2.36c-7.43-3-13.46-18.18-14.79-21.7-.61-1.7-4.44-6.19-8.62-6.2s-7.11,3.89-8.22,6c-1.64,3.84-8.76,19.74-15.25,23.42a25.36,25.36,0,0,0,8.59.58,16.5,16.5,0,0,1-2.27,5.86,26.63,26.63,0,0,0,10.84-4.93,36.64,36.64,0,0,1-2.05,7.25,42.67,42.67,0,0,0,8.34-5.72h.23a29.78,29.78,0,0,0,8.49,5.37,10.32,10.32,0,0,1-.44-6.52S258.93,510.39,265.28,512.18Z"/><path class="g" d="M256.62,481.58c-.61-1.7-4.44-6.2-8.62-6.21s-7.11,3.9-8.22,6.05c-.17.41-.41.95-.7,1.59a12.2,12.2,0,0,0,3.54-1,24.93,24.93,0,0,1-.72,4.19,7.49,7.49,0,0,0,3.89-3.66s1.19,2.8,2.6,3.85a28.26,28.26,0,0,1,2.11-3.67c.46,2.27,2.84,3.5,3.88,3.33-.58-1.4-1.17-2.27-.46-3.67a31.14,31.14,0,0,0,3.23.52C256.93,482.4,256.76,481.93,256.62,481.58Z"/><path class="f" d="M235.15,481.31c4.06-2.3,8.63-8.47,13.14-22.29,4.45,13.69,9,20.49,12.54,21.44-2.29,1.85-5.21,1.22-7.59.74-.63,1.23-.1,2,.4,3.25a3.75,3.75,0,0,1-3.42-2.94,24.42,24.42,0,0,0-1.87,3.24,10.24,10.24,0,0,1-2.28-3.4,6.73,6.73,0,0,1-3.45,3.24h0a21.55,21.55,0,0,0,.64-3.7h0A12.31,12.31,0,0,1,235.15,481.31Z"/><polygon class="e" points="377.65 548.67 373.76 548.67 374.97 539 376.4 539 377.65 548.67"/><path class="f" d="M397.32,538.88c-6-1.57-9.47-11-9.47-11-1.06-3-4.78-8.86-12.38-8.86s-11.64,9-11.67,9.05c-.16.41-3.33,8.53-10.05,12.36C358.51,541.5,390.47,544.55,397.32,538.88Z"/><path class="g" d="M383.76,534.47a9.24,9.24,0,0,1-.47-5.1,12,12,0,0,0,6.17,4.34,11,11,0,0,1-.71-3.83c-.46-1-.7-1.64-.7-1.64-1.08-3-4.87-9-12.59-9s-11.83,9.19-11.86,9.2-.35.91-.93,2a9.57,9.57,0,0,1-1.2,2.6,16.23,16.23,0,0,0,7-4,31.63,31.63,0,0,1-1.64,5.65,21.76,21.76,0,0,0,6-4.43s.7,4.39,2.58,5.36a13.94,13.94,0,0,0,2.48-5.36A20.87,20.87,0,0,0,383.76,534.47Z"/><path class="f" d="M392.53,526.06c-4.23-1.1-7.13-7.82-7.55-8.86-.48,0-8.83-5.2-8.83-5.2l-8.87,4.92s-2.86,7.33-8.13,10.34c3.64.8,5.35,0,5.35,0a10.53,10.53,0,0,1-1.51,4.46,14.71,14.71,0,0,0,6.23-3.55,28.63,28.63,0,0,1-1.47,5,19.36,19.36,0,0,0,5.32-4s.63,3.92,2.3,4.79a12.25,12.25,0,0,0,2.23-4.79,18.49,18.49,0,0,0,5.3,3.72,8.32,8.32,0,0,1-.41-4.56,10.71,10.71,0,0,0,5.51,3.88,8.93,8.93,0,0,1-.41-5.14S389.55,528.47,392.53,526.06Z"/><path class="g" d="M385,517.21c-.48,0-8.83-5.2-8.83-5.2l-8.87,4.92s-.2.48-.56,1.25a9.78,9.78,0,0,1-1.33,3.4,16.14,16.14,0,0,0,6.54-3,21.15,21.15,0,0,1-1.22,4.39,25.83,25.83,0,0,0,5-3.47h.15a18.33,18.33,0,0,0,5.14,3.24,6.2,6.2,0,0,1-.27-3.94,10.33,10.33,0,0,0,5.45,3.27,7.16,7.16,0,0,1-.71-3.68C385.24,517.82,385.07,517.41,385,517.21Z"/><path class="f" d="M385.05,520.88a6.17,6.17,0,0,1-.6-3.51s1.64.54,3.88-1.28c-4-1.6-7.26-9.75-8-11.64-.33-.92-2.4-3.33-4.65-3.33s-3.81,2.11-4.41,3.27c-.87,2.06-4.68,10.62-8.16,12.61a13.65,13.65,0,0,0,4.62.3,9.19,9.19,0,0,1-1.21,3.16,14.37,14.37,0,0,0,5.81-2.67,18.65,18.65,0,0,1-1.09,3.9,22.69,22.69,0,0,0,4.48-3.09h.12a16.49,16.49,0,0,0,4.58,2.88,5.56,5.56,0,0,1-.25-3.51A9.49,9.49,0,0,0,385.05,520.88Z"/><path class="g" d="M380.35,504.44c-.33-.91-2.4-3.32-4.65-3.32s-3.81,2.1-4.41,3.26c-.09.22-.22.51-.37.85a6.36,6.36,0,0,0,1.9-.52,13.36,13.36,0,0,1-.38,2.25,4,4,0,0,0,2.09-2,6.29,6.29,0,0,0,1.4,2.07,14.94,14.94,0,0,1,1.13-2,2.29,2.29,0,0,0,2.09,1.79c-.31-.76-.63-1.22-.25-2a15.1,15.1,0,0,0,1.74.27C380.51,504.88,380.42,504.63,380.35,504.44Z"/><path class="f" d="M368.8,504.33c2.18-1.25,4.63-4.57,7-12,2.41,7.35,4.87,11,6.77,11.51-1.23,1-2.8.66-4.08.41-.33.67,0,1.09.22,1.75a2,2,0,0,1-1.84-1.58,12.62,12.62,0,0,0-1,1.75,5.57,5.57,0,0,1-1.24-1.83,3.61,3.61,0,0,1-1.84,1.75h0a11.65,11.65,0,0,0,.33-2h0A6.61,6.61,0,0,1,368.8,504.33Z"/><polygon class="e" points="471.62 551.24 467.53 551.23 468.82 541.06 470.33 541.07 471.62 551.24"/><path class="f" d="M492.35,541c-6.31-1.67-9.94-11.58-9.94-11.58-1.11-3.16-5-9.34-13-9.36s-12.28,9.49-12.31,9.5c-.17.43-3.52,9-10.6,13C451.49,543.65,485.13,546.94,492.35,541Z"/><path class="g" d="M478.09,536.31a9.64,9.64,0,0,1-.48-5.37,12.65,12.65,0,0,0,6.48,4.59,11.61,11.61,0,0,1-.74-4c-.48-1-.73-1.73-.73-1.73-1.12-3.22-5.1-9.49-13.23-9.51s-12.48,9.65-12.51,9.66-.37,1-1,2.14a10.63,10.63,0,0,1-1.27,2.74,17.34,17.34,0,0,0,7.35-4.17,33.74,33.74,0,0,1-1.74,5.93,22.79,22.79,0,0,0,6.28-4.65s.73,4.63,2.7,5.65a14.58,14.58,0,0,0,2.63-5.63A21.76,21.76,0,0,0,478.09,536.31Z"/><path class="f" d="M487.34,527.48c-4.45-1.17-7.49-8.24-7.92-9.34-.51,0-9.28-5.5-9.28-5.5l-9.36,5.16s-3,7.7-8.58,10.86c3.83.85,5.63.07,5.63.07a11,11,0,0,1-1.6,4.69,15.49,15.49,0,0,0,6.57-3.72,30.78,30.78,0,0,1-1.56,5.3,20.45,20.45,0,0,0,5.61-4.15s.65,4.12,2.41,5a13,13,0,0,0,2.36-5,19.34,19.34,0,0,0,5.57,3.92,8.68,8.68,0,0,1-.42-4.79,11.24,11.24,0,0,0,5.79,4.09,9.31,9.31,0,0,1-.42-5.4S484.2,530,487.34,527.48Z"/><path class="g" d="M479.42,518.14c-.51,0-9.28-5.49-9.28-5.49l-9.36,5.16s-.2.51-.59,1.31a10.32,10.32,0,0,1-1.4,3.57,16.77,16.77,0,0,0,6.89-3.14,22.34,22.34,0,0,1-1.3,4.62,27.7,27.7,0,0,0,5.31-3.64h.15a19.31,19.31,0,0,0,5.41,3.42,6.57,6.57,0,0,1-.28-4.15,10.91,10.91,0,0,0,5.73,3.46,7.58,7.58,0,0,1-.74-3.88C479.69,518.8,479.51,518.35,479.42,518.14Z"/><path class="f" d="M479.48,522a6.49,6.49,0,0,1-.62-3.69s1.72.57,4.09-1.34c-4.2-1.7-7.62-10.29-8.38-12.28-.34-1-2.51-3.5-4.88-3.51s-4,2.21-4.65,3.42c-.92,2.18-5,11.18-8.63,13.26a14.42,14.42,0,0,0,4.87.33,9.44,9.44,0,0,1-1.29,3.32,15,15,0,0,0,6.14-2.8,21.23,21.23,0,0,1-1.16,4.11,24.18,24.18,0,0,0,4.72-3.24h.13a16.85,16.85,0,0,0,4.81,3,5.84,5.84,0,0,1-.25-3.69A9.93,9.93,0,0,0,479.48,522Z"/><path class="g" d="M474.57,504.69c-.34-1-2.51-3.5-4.88-3.51s-4,2.21-4.65,3.43c-.09.23-.23.53-.39.89a6.71,6.71,0,0,0,2-.54,13.74,13.74,0,0,1-.41,2.37,4.24,4.24,0,0,0,2.21-2.07,6.59,6.59,0,0,0,1.47,2.18,15.54,15.54,0,0,1,1.19-2.08,2.4,2.4,0,0,0,2.2,1.88c-.33-.79-.67-1.28-.26-2.08a16.26,16.26,0,0,0,1.83.3C474.75,505.16,474.65,504.89,474.57,504.69Z"/><path class="f" d="M462.42,504.54c2.3-1.3,4.88-4.79,7.44-12.61,2.52,7.74,5.09,11.59,7.1,12.13-1.3,1.05-2.95.69-4.3.42-.35.7-.06,1.14.23,1.84a2.12,2.12,0,0,1-1.94-1.67,13.19,13.19,0,0,0-1.05,1.84,5.68,5.68,0,0,1-1.3-1.92,3.78,3.78,0,0,1-2,1.83h0a11.91,11.91,0,0,0,.36-2.09h0A7,7,0,0,1,462.42,504.54Z"/><polygon class="e" points="424.04 557.12 417.82 557.11 419.79 541.64 422.07 541.65 424.04 557.12"/><path class="f" d="M455.57,541.54c-9.59-2.54-15.11-17.62-15.11-17.62-1.68-4.81-7.61-14.22-19.79-14.25S402,524.11,402,524.12c-.26.66-5.36,13.65-16.14,19.75C393.43,545.56,444.59,550.59,455.57,541.54Z"/><path class="g" d="M433.88,534.41a14.75,14.75,0,0,1-.72-8.16,19.2,19.2,0,0,0,9.86,7,17.43,17.43,0,0,1-1.12-6.14c-.74-1.59-1.12-2.62-1.12-2.62C439.07,519.58,433,510,420.66,510s-19,14.68-19,14.69c-.08.19-.57,1.45-1.5,3.27a15.92,15.92,0,0,1-1.93,4.16,26.36,26.36,0,0,0,11.18-6.35,51.6,51.6,0,0,1-2.65,9,34.58,34.58,0,0,0,9.56-7.07s1.1,7,4.1,8.6a22.31,22.31,0,0,0,4-8.58A33,33,0,0,0,433.88,534.41Z"/><path class="f" d="M448,521c-6.76-1.79-11.39-12.55-12-14.22-.78,0-14.12-8.37-14.12-8.37l-14.24,7.85S403,518,394.5,522.77c5.84,1.29,8.57.1,8.57.1a16.62,16.62,0,0,1-2.43,7.14,23.53,23.53,0,0,0,10-5.66,46.14,46.14,0,0,1-2.38,8.06,31,31,0,0,0,8.54-6.31s1,6.28,3.67,7.68a19.93,19.93,0,0,0,3.59-7.66,29.37,29.37,0,0,0,8.47,6,13.21,13.21,0,0,1-.64-7.29,17.17,17.17,0,0,0,8.81,6.22c-1-2.29-1.34-6.2-.64-8.22C440.06,522.82,443.19,524.84,448,521Z"/><path class="g" d="M435.92,506.78c-.78,0-14.12-8.36-14.12-8.36l-14.24,7.85s-.3.76-.89,2a16,16,0,0,1-2.14,5.45A25.83,25.83,0,0,0,415,508.91a34.64,34.64,0,0,1-2,7,42,42,0,0,0,8.08-5.53h.23a29.4,29.4,0,0,0,8.23,5.2,9.91,9.91,0,0,1-.42-6.32s2.56,3.55,8.71,5.28a11.46,11.46,0,0,1-1.12-5.9C436.33,507.77,436.05,507.1,435.92,506.78Z"/><path class="f" d="M436,512.67a9.89,9.89,0,0,1-.95-5.62s2.63.86,6.22-2c-6.39-2.58-11.58-15.65-12.73-18.68-.52-1.47-3.82-5.33-7.42-5.34s-6.12,3.35-7.08,5.2c-1.41,3.31-7.54,17-13.13,20.17a21.77,21.77,0,0,0,7.4.49,14.1,14.1,0,0,1-2,5,22.93,22.93,0,0,0,9.33-4.24,31.09,31.09,0,0,1-1.76,6.24,36.81,36.81,0,0,0,7.18-4.92h.2a25.78,25.78,0,0,0,7.31,4.62,8.84,8.84,0,0,1-.37-5.62A15,15,0,0,0,436,512.67Z"/><path class="g" d="M428.55,486.32c-.52-1.47-3.82-5.34-7.42-5.34s-6.12,3.35-7.08,5.2c-.14.36-.35.82-.6,1.37a9.91,9.91,0,0,0,3-.84,21,21,0,0,1-.62,3.62,6.48,6.48,0,0,0,3.36-3.16,10,10,0,0,0,2.24,3.32,24,24,0,0,1,1.81-3.16,3.66,3.66,0,0,0,3.34,2.87c-.5-1.21-1-2-.39-3.17a26,26,0,0,0,2.78.45C428.82,487,428.67,486.63,428.55,486.32Z"/><path class="f" d="M410.06,486.09c3.5-2,7.43-7.3,11.32-19.19,3.83,11.78,7.75,17.64,10.8,18.45-2,1.6-4.49,1-6.54.64-.54,1.07-.09,1.74.35,2.8a3.22,3.22,0,0,1-2.95-2.53,20.75,20.75,0,0,0-1.61,2.79,8.83,8.83,0,0,1-2-2.93,5.69,5.69,0,0,1-3,2.79h0a18.66,18.66,0,0,0,.55-3.18h0A10.64,10.64,0,0,1,410.06,486.09Z"/><polygon class="e" points="334.08 575.58 325.24 575.56 328.05 553.56 331.3 553.57 334.08 575.58"/><path class="f" d="M378.94,553.42c-13.64-3.62-21.49-25.07-21.49-25.07-2.39-6.83-10.83-20.21-28.15-20.26s-26.56,20.53-26.63,20.54c-.37.94-7.63,19.42-22.95,28.1C290.55,559.14,363.31,566.28,378.94,553.42Z"/><path class="g" d="M348.08,543.28a21.11,21.11,0,0,1-1-11.61s4.22,6.68,14,9.92a25.07,25.07,0,0,1-1.59-8.72c-1.05-2.26-1.59-3.74-1.59-3.74-2.43-7-11-20.54-28.62-20.59s-27,20.88-27.07,20.89a46.47,46.47,0,0,1-2.13,4.65,22.38,22.38,0,0,1-2.74,5.92,37.33,37.33,0,0,0,15.9-9,72.51,72.51,0,0,1-3.77,12.85,49.39,49.39,0,0,0,13.59-10.06s1.57,10,5.84,12.23a31.51,31.51,0,0,0,5.7-12.2A47.13,47.13,0,0,0,348.08,543.28Z"/><path class="f" d="M368.11,524.19C358.5,521.65,351.92,506.34,351,504c-1.11.05-20.08-11.9-20.08-11.9l-20.25,11.17s-6.56,16.65-18.58,23.48c8.3,1.85,12.19.16,12.19.16A23.77,23.77,0,0,1,300.8,537,33.65,33.65,0,0,0,315,529a65.08,65.08,0,0,1-3.39,11.48,43.91,43.91,0,0,0,12.15-9s1.4,8.94,5.22,10.93a28.42,28.42,0,0,0,5.1-10.9,42,42,0,0,0,12,8.49,18.89,18.89,0,0,1-.91-10.37s3.77,6,12.53,8.86c-1.36-3.27-1.9-8.83-.9-11.69C356.88,526.78,361.32,529.66,368.11,524.19Z"/><path class="g" d="M351,504c-1.11,0-20.08-11.9-20.08-11.9l-20.25,11.17s-.44,1.09-1.28,2.82c-.63,2.76-1.75,6.15-3,7.74a36.5,36.5,0,0,0,14.92-6.8,49.85,49.85,0,0,1-2.82,10,59.54,59.54,0,0,0,11.48-7.88h.33a41.22,41.22,0,0,0,11.71,7.4,14.14,14.14,0,0,1-.61-9s3.66,5.05,12.4,7.5a16.31,16.31,0,0,1-1.59-8.39C351.57,505.39,351.18,504.43,351,504Z"/><path class="f" d="M351.12,512.35a14,14,0,0,1-1.35-8s3.73,1.22,8.85-2.9c-9.09-3.67-16.48-22.26-18.12-26.57-.74-2.08-5.43-7.59-10.55-7.6s-8.7,4.77-10.06,7.41c-2,4.7-10.73,24.16-18.68,28.68a31,31,0,0,0,10.52.7c-.54,2.5-1.59,5.73-2.78,7.18a32.44,32.44,0,0,0,13.27-6,44.28,44.28,0,0,1-2.51,8.89,52.64,52.64,0,0,0,10.22-7h.27a36.82,36.82,0,0,0,10.41,6.58,12.67,12.67,0,0,1-.54-8S343.35,510.16,351.12,512.35Z"/><path class="g" d="M340.5,474.87c-.74-2.08-5.43-7.58-10.55-7.6s-8.7,4.77-10.06,7.41c-.21.5-.51,1.16-.86,1.94a14.54,14.54,0,0,0,4.33-1.18,29.91,29.91,0,0,1-.88,5.13,9.19,9.19,0,0,0,4.77-4.48s1.45,3.42,3.18,4.71a35.42,35.42,0,0,1,2.58-4.49c.57,2.78,3.48,4.29,4.75,4.08-.7-1.72-1.43-2.78-.56-4.5a39,39,0,0,0,4,.64C340.88,475.88,340.68,475.31,340.5,474.87Z"/><path class="f" d="M314.21,474.54c5-2.81,10.57-10.37,16.1-27.29,5.45,16.76,11,25.09,15.36,26.25-2.81,2.27-6.38,1.49-9.3.91-.77,1.51-.13,2.47.49,4-1.11.19-3.69-1.14-4.19-3.61a28.64,28.64,0,0,0-2.28,4c-1.53-1.14-2.81-4.16-2.81-4.16a8.19,8.19,0,0,1-4.21,4h0a26.75,26.75,0,0,0,.78-4.53h0C320.7,475.52,317.65,475.32,314.21,474.54Z"/><path class="h" d="M1400,806.12H.29v-277c129.55-71.29,241.57,42.39,365,29,111.18-12.05,212-56.27,392.18,37.78,182.1,95.06,168.86,17.82,336.71-11.56,177.3-31,305.88,74.79,305.88,74.79Z"/><polygon class="e" points="727.66 695.27 718.93 695.27 721.64 673.54 724.85 673.54 727.66 695.27"/><path class="f" d="M771.91,673.26c-13.49-3.53-21.29-24.7-21.29-24.7-2.39-6.75-10.76-19.94-27.87-19.94S696.57,649,696.5,649c-.36.92-7.48,19.19-22.59,27.81C684.61,679.15,756.51,686,771.91,673.26Z"/><path class="g" d="M741.4,663.33a20.87,20.87,0,0,1-1-11.46s4.18,6.59,13.88,9.76a24.76,24.76,0,0,1-1.6-8.61c-1-2.23-1.58-3.69-1.58-3.69-2.42-6.86-10.94-20.26-28.32-20.26s-26.62,20.69-26.68,20.7a49,49,0,0,1-2.1,4.6,22.14,22.14,0,0,1-2.69,5.85,36.91,36.91,0,0,0,15.68-9A71.71,71.71,0,0,1,703.26,664a48.79,48.79,0,0,0,13.4-10s1.58,9.88,5.8,12.06A31.11,31.11,0,0,0,728.05,654,46.83,46.83,0,0,0,741.4,663.33Z"/><path class="f" d="M761.13,644.42c-9.5-2.49-16-17.58-17-19.94-1.09.06-19.86-11.7-19.86-11.7l-20,11.09s-6.44,16.47-18.29,23.25c8.2,1.8,12,.12,12,.12a23.45,23.45,0,0,1-3.4,10,33.15,33.15,0,0,0,14-8,64.49,64.49,0,0,1-3.31,11.34,43.77,43.77,0,0,0,12-8.91s1.4,8.82,5.18,10.78a28,28,0,0,0,5-10.78,41.52,41.52,0,0,0,11.92,8.36,18.73,18.73,0,0,1-.93-10.24s3.74,5.88,12.41,8.71c-1.36-3.22-1.91-8.71-.93-11.54C750.05,647,754.44,649.84,761.13,644.42Z"/><path class="g" d="M744.16,624.5c-1.09,0-19.86-11.7-19.86-11.7l-20,11.08s-.43,1.09-1.26,2.8c-.61,2.73-1.71,6.07-3,7.65a36,36,0,0,0,14.72-6.76,49.35,49.35,0,0,1-2.76,9.89,59.32,59.32,0,0,0,11.32-7.81h.33a41.09,41.09,0,0,0,11.58,7.27,13.94,13.94,0,0,1-.62-8.87s3.62,5,12.27,7.38a16,16,0,0,1-1.6-8.29C744.75,625.89,744.35,625,744.16,624.5Z"/><path class="f" d="M744.32,632.77a13.8,13.8,0,0,1-1.36-7.89s3.69,1.2,8.74-2.88c-9-3.61-16.34-22-18-26.2-.73-2.06-5.38-7.48-10.45-7.48s-8.57,4.73-9.91,7.34c-2,4.65-10.54,23.9-18.38,28.38a30.65,30.65,0,0,0,10.4.67c-.53,2.47-1.56,5.66-2.73,7.1a32,32,0,0,0,13.09-6,44,44,0,0,1-2.45,8.78,51.79,51.79,0,0,0,10.07-7h.27a36.41,36.41,0,0,0,10.3,6.47,12.5,12.5,0,0,1-.55-7.89S736.63,630.63,744.32,632.77Z"/><path class="g" d="M733.73,595.78c-.73-2.06-5.38-7.48-10.45-7.48s-8.57,4.74-9.91,7.34c-.21.5-.5,1.15-.84,1.93a14.52,14.52,0,0,0,4.27-1.19,29.75,29.75,0,0,1-.86,5.08,9.06,9.06,0,0,0,4.7-4.44s1.44,3.38,3.16,4.65a34.79,34.79,0,0,1,2.54-4.45c.56,2.75,3.45,4.22,4.7,4-.7-1.7-1.42-2.75-.57-4.45a38.26,38.26,0,0,0,3.92.62C734.11,596.78,733.9,596.21,733.73,595.78Z"/><path class="f" d="M707.76,595.52c4.9-2.79,10.41-10.27,15.83-27,5.42,16.54,10.95,24.76,15.24,25.89-2.76,2.25-6.3,1.49-9.18.92-.76,1.5-.12,2.44.5,3.93-1.1.19-3.66-1.11-4.15-3.55a29.21,29.21,0,0,0-2.25,3.93c-1.51-1.11-2.78-4.1-2.78-4.1a8.1,8.1,0,0,1-4.15,3.93h0a27.14,27.14,0,0,0,.75-4.48h0C714.17,596.47,711.15,596.28,707.76,595.52Z"/><polygon class="e" points="817.15 657.41 813.27 657.41 814.48 647.75 815.9 647.75 817.15 657.41"/><path class="f" d="M836.82,647.62c-6-1.57-9.46-11-9.46-11-1.06-3-4.79-8.86-12.39-8.86s-11.64,9.05-11.67,9.05c-.16.41-3.32,8.54-10,12.37C798,650.24,830,653.29,836.82,647.62Z"/><path class="g" d="M823.26,643.21a9.24,9.24,0,0,1-.46-5.1,12,12,0,0,0,6.17,4.34,10.69,10.69,0,0,1-.71-3.82c-.47-1-.71-1.64-.71-1.64A13.43,13.43,0,0,0,815,628c-7.72,0-11.83,9.2-11.86,9.2a19.41,19.41,0,0,1-.93,2.05,10,10,0,0,1-1.19,2.6,16.55,16.55,0,0,0,7-4,32.63,32.63,0,0,1-1.64,5.64,21.66,21.66,0,0,0,6-4.43s.71,4.39,2.58,5.36a13.79,13.79,0,0,0,2.49-5.36A20.63,20.63,0,0,0,823.26,643.21Z"/><path class="f" d="M832,634.8c-4.22-1.1-7.13-7.81-7.54-8.86-.49,0-8.83-5.2-8.83-5.2l-8.88,4.93S803.92,633,798.65,636c3.65.8,5.35.06,5.35.06a10.29,10.29,0,0,1-1.51,4.46,14.79,14.79,0,0,0,6.23-3.56,27.8,27.8,0,0,1-1.47,5,19.57,19.57,0,0,0,5.33-4s.62,3.92,2.3,4.78a12.41,12.41,0,0,0,2.23-4.78,18.51,18.51,0,0,0,5.3,3.71,8.29,8.29,0,0,1-.42-4.55,10.78,10.78,0,0,0,5.52,3.87,8.81,8.81,0,0,1-.41-5.13S829.06,637.21,832,634.8Z"/><path class="g" d="M824.49,626c-.49,0-8.83-5.2-8.83-5.2l-8.88,4.93s-.19.48-.56,1.24a9.78,9.78,0,0,1-1.32,3.4,16.12,16.12,0,0,0,6.54-3,22.18,22.18,0,0,1-1.23,4.39,26.2,26.2,0,0,0,5-3.47h.14a18.2,18.2,0,0,0,5.15,3.23,6.27,6.27,0,0,1-.28-3.94,10.38,10.38,0,0,0,5.46,3.28,7.09,7.09,0,0,1-.71-3.69C824.75,626.57,824.57,626.15,824.49,626Z"/><path class="f" d="M824.56,629.63a6.14,6.14,0,0,1-.61-3.51s1.64.53,3.89-1.28c-4-1.6-7.26-9.76-8-11.65-.33-.91-2.39-3.32-4.64-3.32s-3.82,2.1-4.41,3.26c-.88,2.07-4.68,10.62-8.17,12.61a13.34,13.34,0,0,0,4.62.3A8.8,8.8,0,0,1,806,629.2a14.33,14.33,0,0,0,5.82-2.67,20,20,0,0,1-1.09,3.9,22.93,22.93,0,0,0,4.48-3.08h.12a16,16,0,0,0,4.57,2.87,5.55,5.55,0,0,1-.24-3.51A9.4,9.4,0,0,0,824.56,629.63Z"/><path class="g" d="M819.85,613.18c-.33-.91-2.39-3.32-4.64-3.32s-3.82,2.1-4.41,3.26c-.09.22-.22.51-.37.86a6.34,6.34,0,0,0,1.89-.53,13.58,13.58,0,0,1-.38,2.26,4,4,0,0,0,2.09-2,6.11,6.11,0,0,0,1.41,2.07,15.24,15.24,0,0,1,1.12-2,2.3,2.3,0,0,0,2.09,1.79c-.31-.76-.63-1.22-.25-2,.55.11,1.14.22,1.74.28C820,613.63,819.93,613.37,819.85,613.18Z"/><path class="f" d="M808.31,613.07c2.18-1.24,4.62-4.57,7-12,2.41,7.35,4.87,11,6.78,11.5-1.23,1-2.8.67-4.08.42-.34.66-.06,1.08.22,1.74a2,2,0,0,1-1.85-1.58,12.62,12.62,0,0,0-1,1.75,5.48,5.48,0,0,1-1.23-1.82,3.6,3.6,0,0,1-1.85,1.74h0a12,12,0,0,0,.34-2h0A6.61,6.61,0,0,1,808.31,613.07Z"/><polygon class="e" points="898.19 665.67 892.97 665.66 894.62 652.65 896.54 652.66 898.19 665.67"/><path class="f" d="M924.7,652.56c-8.06-2.13-12.7-14.81-12.7-14.81-1.42-4-6.41-12-16.65-12s-15.69,12.13-15.73,12.14c-.22.56-4.51,11.48-13.56,16.61C872.46,656,915.47,660.17,924.7,652.56Z"/><path class="g" d="M906.46,646.57a12.49,12.49,0,0,1-.61-6.86,16.18,16.18,0,0,0,8.29,5.86,14.85,14.85,0,0,1-.94-5.15c-.62-1.34-.94-2.21-.94-2.21-1.44-4.11-6.52-12.14-16.92-12.17s-16,12.35-16,12.36a30.15,30.15,0,0,1-1.26,2.74,13,13,0,0,1-1.62,3.5,22.08,22.08,0,0,0,9.39-5.33,42.46,42.46,0,0,1-2.22,7.59,29.16,29.16,0,0,0,8-5.95s.93,5.92,3.45,7.23a18.64,18.64,0,0,0,3.37-7.21A27.89,27.89,0,0,0,906.46,646.57Z"/><path class="f" d="M918.3,635.29c-5.69-1.5-9.58-10.55-10.13-12-.66,0-11.87-7-11.87-7l-12,6.61s-3.87,9.84-11,13.88c4.9,1.09,7.2.09,7.2.09a14.12,14.12,0,0,1-2,6,19.81,19.81,0,0,0,8.39-4.76,38.28,38.28,0,0,1-2,6.78,26.35,26.35,0,0,0,7.18-5.31s.82,5.28,3.08,6.45a16.63,16.63,0,0,0,3-6.44,25,25,0,0,0,7.13,5,11.08,11.08,0,0,1-.54-6.13,14.4,14.4,0,0,0,7.41,5.23,11.87,11.87,0,0,1-.54-6.91S914.28,638.52,918.3,635.29Z"/><path class="g" d="M908.17,623.34c-.66,0-11.87-7-11.87-7l-12,6.61s-.25.64-.75,1.67a13.1,13.1,0,0,1-1.8,4.57,21.6,21.6,0,0,0,8.82-4,28.69,28.69,0,0,1-1.67,5.91,34.92,34.92,0,0,0,6.79-4.66h.2a24.15,24.15,0,0,0,6.92,4.37,8.33,8.33,0,0,1-.36-5.3s2.16,3,7.33,4.43a9.54,9.54,0,0,1-.94-5C908.52,624.18,908.28,623.61,908.17,623.34Z"/><path class="f" d="M908.25,628.29a8.3,8.3,0,0,1-.8-4.72s2.21.72,5.23-1.71c-5.37-2.17-9.74-13.16-10.71-15.71-.44-1.23-3.21-4.48-6.24-4.49s-5.14,2.82-6,4.38c-1.18,2.78-6.33,14.29-11,17a18.12,18.12,0,0,0,6.22.41,12,12,0,0,1-1.64,4.25,19.23,19.23,0,0,0,7.84-3.58,26.81,26.81,0,0,1-1.48,5.26,31.18,31.18,0,0,0,6-4.15h.17a21.6,21.6,0,0,0,6.15,3.89,7.44,7.44,0,0,1-.32-4.72A12.77,12.77,0,0,0,908.25,628.29Z"/><path class="g" d="M902,606.14c-.44-1.23-3.21-4.48-6.24-4.49s-5.14,2.82-6,4.38c-.12.3-.29.69-.5,1.15a8.54,8.54,0,0,0,2.56-.7,18.17,18.17,0,0,1-.52,3,5.47,5.47,0,0,0,2.82-2.66,8.24,8.24,0,0,0,1.88,2.79,20.66,20.66,0,0,1,1.52-2.65,3.06,3.06,0,0,0,2.81,2.4c-.42-1-.85-1.64-.33-2.66a20.78,20.78,0,0,0,2.34.38C902.2,606.74,902.07,606.4,902,606.14Z"/><path class="f" d="M886.43,606c2.94-1.66,6.24-6.13,9.51-16.13,3.22,9.9,6.52,14.83,9.08,15.51-1.65,1.34-3.77.88-5.49.54-.46.89-.08,1.46.29,2.35a2.71,2.71,0,0,1-2.48-2.13,17.4,17.4,0,0,0-1.35,2.35,7.42,7.42,0,0,1-1.66-2.46,4.82,4.82,0,0,1-2.49,2.35h0a16.07,16.07,0,0,0,.46-2.68h0A8.86,8.86,0,0,1,886.43,606Z"/><polygon class="e" points="860.72 672.55 853.5 672.53 855.79 654.57 858.45 654.57 860.72 672.55"/><path class="f" d="M897.35,654.45C886.21,651.5,879.8,634,879.8,634c-1.95-5.58-8.85-16.5-23-16.54s-21.68,16.76-21.74,16.78c-.3.76-6.22,15.85-18.74,22.93C825.18,659.12,884.59,665,897.35,654.45Z"/><path class="g" d="M872.15,646.17a17.24,17.24,0,0,1-.84-9.47,22.4,22.4,0,0,0,11.45,8.1,20.71,20.71,0,0,1-1.3-7.13c-.86-1.84-1.29-3-1.29-3-2-5.68-9-16.77-23.37-16.81s-22,17-22.1,17.06a41.14,41.14,0,0,1-1.74,3.79,17.89,17.89,0,0,1-2.24,4.83,30.47,30.47,0,0,0,13-7.36,58.78,58.78,0,0,1-3.07,10.48,40.23,40.23,0,0,0,11.09-8.21s1.29,8.17,4.77,10a25.81,25.81,0,0,0,4.65-10A38.54,38.54,0,0,0,872.15,646.17Z"/><path class="f" d="M888.5,630.59c-7.85-2.08-13.22-14.57-14-16.52-.91,0-16.39-9.71-16.39-9.71l-16.54,9.11s-5.35,13.6-15.16,19.18c6.77,1.5,10,.12,10,.12a19.42,19.42,0,0,1-2.83,8.29,27.23,27.23,0,0,0,11.6-6.58,52.34,52.34,0,0,1-2.76,9.37,36.11,36.11,0,0,0,9.92-7.33s1.14,7.29,4.26,8.92a23,23,0,0,0,4.16-8.9,34.36,34.36,0,0,0,9.84,6.93,15.49,15.49,0,0,1-.74-8.47,19.94,19.94,0,0,0,10.23,7.24c-1.11-2.67-1.55-7.21-.74-9.55C879.34,632.7,883,635.05,888.5,630.59Z"/><path class="g" d="M874.52,614.09c-.91,0-16.39-9.72-16.39-9.72l-16.54,9.12s-.35.89-1,2.31c-.51,2.25-1.43,5-2.48,6.31a29.79,29.79,0,0,0,12.18-5.55,40.68,40.68,0,0,1-2.3,8.16,48.37,48.37,0,0,0,9.37-6.43h.27a33.85,33.85,0,0,0,9.56,6,11.58,11.58,0,0,1-.49-7.33s3,4.12,10.12,6.13a13.3,13.3,0,0,1-1.3-6.86C875,615.24,874.68,614.45,874.52,614.09Z"/><path class="f" d="M874.63,620.92a11.41,11.41,0,0,1-1.1-6.53s3.05,1,7.22-2.36c-7.42-3-13.45-18.17-14.79-21.69-.6-1.71-4.43-6.2-8.62-6.21s-7.1,3.9-8.21,6c-1.64,3.84-8.76,19.73-15.25,23.41a25,25,0,0,0,8.59.58A16.42,16.42,0,0,1,840.2,620,26.63,26.63,0,0,0,851,615.1a36.74,36.74,0,0,1-2,7.26,42.72,42.72,0,0,0,8.34-5.73h.22a29.82,29.82,0,0,0,8.5,5.37,10.32,10.32,0,0,1-.44-6.52S868.28,619.13,874.63,620.92Z"/><path class="g" d="M866,590.32c-.6-1.7-4.43-6.19-8.62-6.2s-7.1,3.89-8.21,6c-.17.41-.41,1-.7,1.59a11.6,11.6,0,0,0,3.54-1,25.15,25.15,0,0,1-.72,4.2,7.52,7.52,0,0,0,3.89-3.67s1.18,2.8,2.6,3.85a28.65,28.65,0,0,1,2.11-3.66,4.25,4.25,0,0,0,3.88,3.33c-.58-1.41-1.18-2.28-.46-3.68a31.14,31.14,0,0,0,3.23.52C866.27,591.15,866.1,590.68,866,590.32Z"/><path class="f" d="M844.49,590.05c4.07-2.3,8.63-8.47,13.15-22.28,4.45,13.68,9,20.48,12.54,21.43-2.29,1.85-5.21,1.22-7.59.74-.63,1.24-.1,2,.4,3.25a3.72,3.72,0,0,1-3.42-2.94,24.42,24.42,0,0,0-1.87,3.24,10.22,10.22,0,0,1-2.29-3.39,6.65,6.65,0,0,1-3.44,3.23h0a21.55,21.55,0,0,0,.64-3.7h0A12.27,12.27,0,0,1,844.49,590.05Z"/><polygon class="e" points="987 657.41 983.11 657.41 984.32 647.75 985.75 647.75 987 657.41"/><path class="f" d="M1006.66,647.62c-6-1.57-9.46-11-9.46-11-1.06-3-4.78-8.86-12.39-8.86s-11.63,9.05-11.66,9.05c-.16.41-3.33,8.54-10,12.37C967.86,650.24,999.82,653.29,1006.66,647.62Z"/><path class="g" d="M993.1,643.21a9.33,9.33,0,0,1-.46-5.1,12,12,0,0,0,6.17,4.34,10.91,10.91,0,0,1-.71-3.82c-.47-1-.7-1.64-.7-1.64-1.08-3.06-4.87-9-12.59-9s-11.83,9.2-11.86,9.2a22.13,22.13,0,0,1-.93,2.05,9.71,9.71,0,0,1-1.2,2.6,16.44,16.44,0,0,0,7-4,31.77,31.77,0,0,1-1.64,5.64,21.7,21.7,0,0,0,6-4.43s.7,4.39,2.57,5.36a13.79,13.79,0,0,0,2.49-5.36A20.63,20.63,0,0,0,993.1,643.21Z"/><path class="f" d="M1001.87,634.8c-4.22-1.1-7.13-7.81-7.54-8.86-.49,0-8.83-5.2-8.83-5.2l-8.88,4.93S973.76,633,968.49,636c3.65.8,5.36.06,5.36.06a10.57,10.57,0,0,1-1.51,4.46,14.91,14.91,0,0,0,6.23-3.56,28.63,28.63,0,0,1-1.47,5,19.52,19.52,0,0,0,5.32-4s.63,3.92,2.3,4.78a12.41,12.41,0,0,0,2.23-4.78,18.51,18.51,0,0,0,5.3,3.71,8.28,8.28,0,0,1-.41-4.55,10.73,10.73,0,0,0,5.51,3.87,8.89,8.89,0,0,1-.41-5.13S998.9,637.21,1001.87,634.8Z"/><path class="g" d="M994.33,626c-.49,0-8.83-5.2-8.83-5.2l-8.88,4.93s-.19.48-.55,1.24a10,10,0,0,1-1.33,3.4,16.12,16.12,0,0,0,6.54-3,21.5,21.5,0,0,1-1.22,4.39,25.83,25.83,0,0,0,5-3.47h.14a18.34,18.34,0,0,0,5.15,3.23,6.2,6.2,0,0,1-.27-3.94,10.38,10.38,0,0,0,5.45,3.28,7.19,7.19,0,0,1-.71-3.69C994.59,626.57,994.42,626.15,994.33,626Z"/><path class="f" d="M994.4,629.63a6.18,6.18,0,0,1-.6-3.51s1.64.53,3.88-1.28c-4-1.6-7.26-9.76-8-11.65-.33-.91-2.4-3.32-4.65-3.32s-3.81,2.1-4.41,3.26c-.87,2.07-4.68,10.62-8.17,12.61a13.4,13.4,0,0,0,4.63.3,9,9,0,0,1-1.22,3.16,14.21,14.21,0,0,0,5.82-2.67,18.65,18.65,0,0,1-1.09,3.9,22.93,22.93,0,0,0,4.48-3.08h.12a16.23,16.23,0,0,0,4.58,2.87,5.56,5.56,0,0,1-.25-3.51A9.4,9.4,0,0,0,994.4,629.63Z"/><path class="g" d="M989.7,613.18c-.33-.91-2.4-3.32-4.65-3.32s-3.81,2.1-4.41,3.26c-.09.22-.22.51-.37.86a6.39,6.39,0,0,0,1.9-.53,13.58,13.58,0,0,1-.38,2.26,4.11,4.11,0,0,0,2.09-2,6.19,6.19,0,0,0,1.4,2.07,14.94,14.94,0,0,1,1.13-2,2.29,2.29,0,0,0,2.09,1.79c-.31-.76-.64-1.22-.25-2a17.58,17.58,0,0,0,1.74.28C989.86,613.63,989.77,613.37,989.7,613.18Z"/><path class="f" d="M978.15,613.07c2.18-1.24,4.63-4.57,7-12,2.41,7.35,4.86,11,6.77,11.5-1.23,1-2.8.67-4.08.42-.34.66,0,1.08.22,1.74a2,2,0,0,1-1.84-1.58,12.62,12.62,0,0,0-1,1.75,5.57,5.57,0,0,1-1.24-1.82,3.59,3.59,0,0,1-1.84,1.74h0a11.65,11.65,0,0,0,.33-2h0A6.61,6.61,0,0,1,978.15,613.07Z"/><polygon class="e" points="1080.97 659.99 1076.88 659.98 1078.17 649.81 1079.67 649.81 1080.97 659.99"/><path class="f" d="M1101.7,649.73c-6.31-1.66-9.94-11.58-9.94-11.58-1.11-3.16-5-9.34-13-9.36s-12.28,9.49-12.31,9.5c-.17.43-3.52,9-10.6,13C1060.84,652.39,1094.48,655.68,1101.7,649.73Z"/><path class="g" d="M1087.43,645.05a9.7,9.7,0,0,1-.47-5.36,12.61,12.61,0,0,0,6.48,4.58,11.57,11.57,0,0,1-.74-4c-.48-1-.73-1.73-.73-1.73-1.13-3.21-5.1-9.49-13.23-9.51s-12.48,9.65-12.51,9.66-.37,1-1,2.15a10.56,10.56,0,0,1-1.27,2.73,17.29,17.29,0,0,0,7.35-4.17,34.1,34.1,0,0,1-1.74,5.94,23.2,23.2,0,0,0,6.28-4.65s.73,4.62,2.7,5.65a14.67,14.67,0,0,0,2.63-5.64A21.86,21.86,0,0,0,1087.43,645.05Z"/><path class="f" d="M1096.69,636.23c-4.45-1.18-7.49-8.25-7.92-9.35-.51,0-9.28-5.5-9.28-5.5l-9.36,5.17s-3,7.7-8.58,10.85c3.83.85,5.63.07,5.63.07a11,11,0,0,1-1.6,4.7,15.63,15.63,0,0,0,6.57-3.73,30.52,30.52,0,0,1-1.56,5.3,20.6,20.6,0,0,0,5.61-4.15s.65,4.13,2.41,5a13.11,13.11,0,0,0,2.36-5,19.2,19.2,0,0,0,5.57,3.92,8.67,8.67,0,0,1-.42-4.79,11.24,11.24,0,0,0,5.79,4.09,9.31,9.31,0,0,1-.42-5.4S1093.55,638.76,1096.69,636.23Z"/><path class="g" d="M1088.77,626.89c-.51,0-9.28-5.5-9.28-5.5l-9.36,5.16s-.2.51-.59,1.31a10.38,10.38,0,0,1-1.4,3.58,16.92,16.92,0,0,0,6.89-3.15,23.46,23.46,0,0,1-1.3,4.62,26.9,26.9,0,0,0,5.3-3.64h.16a19.17,19.17,0,0,0,5.41,3.42,6.5,6.5,0,0,1-.28-4.15,10.91,10.91,0,0,0,5.73,3.46,7.55,7.55,0,0,1-.74-3.87C1089,627.54,1088.86,627.1,1088.77,626.89Z"/><path class="f" d="M1088.83,630.76a6.42,6.42,0,0,1-.62-3.7s1.72.57,4.09-1.34c-4.21-1.69-7.62-10.28-8.38-12.27-.34-1-2.51-3.51-4.88-3.52s-4,2.21-4.65,3.43c-.93,2.17-5,11.17-8.63,13.26a14.23,14.23,0,0,0,4.87.32,9.48,9.48,0,0,1-1.29,3.32,15.06,15.06,0,0,0,6.13-2.79,20.43,20.43,0,0,1-1.15,4.1,24.48,24.48,0,0,0,4.72-3.24h.13a16.94,16.94,0,0,0,4.8,3,5.83,5.83,0,0,1-.24-3.69A9.84,9.84,0,0,0,1088.83,630.76Z"/><path class="g" d="M1083.92,613.44c-.34-1-2.51-3.51-4.88-3.51s-4,2.2-4.65,3.42c-.09.23-.23.54-.39.9a6.82,6.82,0,0,0,2-.55,13.74,13.74,0,0,1-.41,2.37,4.22,4.22,0,0,0,2.2-2.07,6.68,6.68,0,0,0,1.48,2.18,15.54,15.54,0,0,1,1.19-2.08,2.41,2.41,0,0,0,2.19,1.89c-.32-.8-.66-1.29-.25-2.08.57.11,1.19.23,1.82.29Z"/><path class="f" d="M1071.77,613.29c2.3-1.31,4.88-4.8,7.44-12.62,2.52,7.74,5.09,11.6,7.1,12.13-1.3,1.05-3,.69-4.3.42-.35.7-.06,1.14.23,1.84a2.11,2.11,0,0,1-1.94-1.66,13.7,13.7,0,0,0-1.06,1.83,5.76,5.76,0,0,1-1.29-1.92,3.78,3.78,0,0,1-2,1.83h0a11.77,11.77,0,0,0,.36-2.09h0A7,7,0,0,1,1071.77,613.29Z"/><polygon class="e" points="1033.38 665.87 1027.17 665.85 1029.14 650.38 1031.42 650.39 1033.38 665.87"/><path class="f" d="M1064.92,650.28c-9.59-2.54-15.11-17.62-15.11-17.62-1.68-4.81-7.62-14.21-19.79-14.24s-18.68,14.43-18.72,14.44c-.26.66-5.37,13.65-16.14,19.75C1002.78,654.31,1053.93,659.33,1064.92,650.28Z"/><path class="g" d="M1043.23,643.16a14.86,14.86,0,0,1-.73-8.16,19.28,19.28,0,0,0,9.86,7,17.61,17.61,0,0,1-1.11-6.13c-.75-1.59-1.12-2.63-1.12-2.63-1.71-4.89-7.75-14.44-20.12-14.48s-19,14.68-19,14.69c-.08.2-.57,1.45-1.5,3.27a15.62,15.62,0,0,1-1.93,4.16,26.36,26.36,0,0,0,11.18-6.35,51.6,51.6,0,0,1-2.65,9,34.73,34.73,0,0,0,9.56-7.07s1.1,7,4.1,8.6a22.12,22.12,0,0,0,4-8.57A33.41,33.41,0,0,0,1043.23,643.16Z"/><path class="f" d="M1057.31,629.74c-6.76-1.79-11.39-12.55-12-14.23-.78,0-14.12-8.36-14.12-8.36L1016.91,615s-4.61,11.71-13.06,16.51c5.83,1.3,8.57.11,8.57.11a16.7,16.7,0,0,1-2.43,7.14,23.67,23.67,0,0,0,10-5.67,46,46,0,0,1-2.38,8.07,31.16,31.16,0,0,0,8.54-6.32s1,6.28,3.67,7.68a19.82,19.82,0,0,0,3.58-7.66,29.55,29.55,0,0,0,8.48,6,13.2,13.2,0,0,1-.64-7.29,17.15,17.15,0,0,0,8.81,6.23c-1-2.3-1.34-6.21-.64-8.22C1049.41,631.56,1052.53,633.58,1057.31,629.74Z"/><path class="g" d="M1045.27,615.53c-.78,0-14.12-8.37-14.12-8.37L1016.91,615s-.3.77-.89,2a15.89,15.89,0,0,1-2.14,5.44,25.8,25.8,0,0,0,10.49-4.78,35.21,35.21,0,0,1-2,7,41.56,41.56,0,0,0,8.08-5.53h.23a29.4,29.4,0,0,0,8.23,5.2,9.9,9.9,0,0,1-.42-6.32s2.56,3.55,8.71,5.28a11.45,11.45,0,0,1-1.12-5.9C1045.68,616.52,1045.4,615.84,1045.27,615.53Z"/><path class="f" d="M1045.36,621.41a9.79,9.79,0,0,1-.95-5.62s2.62.86,6.22-2c-6.39-2.58-11.58-15.65-12.73-18.69-.52-1.46-3.82-5.33-7.43-5.34s-6.11,3.35-7.07,5.21c-1.41,3.3-7.54,17-13.13,20.16a21.65,21.65,0,0,0,7.4.5,14.36,14.36,0,0,1-2,5,22.82,22.82,0,0,0,9.33-4.25,31,31,0,0,1-1.76,6.25,36.86,36.86,0,0,0,7.18-4.93h.2a25.78,25.78,0,0,0,7.31,4.62,8.88,8.88,0,0,1-.38-5.61A15.19,15.19,0,0,0,1045.36,621.41Z"/><path class="g" d="M1037.9,595.06c-.52-1.46-3.82-5.33-7.43-5.34s-6.11,3.35-7.07,5.21c-.15.35-.35.81-.6,1.36a10.25,10.25,0,0,0,3-.83,21,21,0,0,1-.62,3.61,6.45,6.45,0,0,0,3.36-3.15,9.88,9.88,0,0,0,2.24,3.31,24,24,0,0,1,1.81-3.16,3.65,3.65,0,0,0,3.34,2.87c-.5-1.21-1-2-.39-3.16a25.27,25.27,0,0,0,2.78.44C1038.16,595.77,1038,595.37,1037.9,595.06Z"/><path class="f" d="M1019.41,594.83c3.5-2,7.43-7.3,11.32-19.19,3.83,11.78,7.75,17.64,10.8,18.46-2,1.59-4.49,1-6.54.64-.54,1.06-.09,1.73.35,2.79a3.21,3.21,0,0,1-2.95-2.53,20.75,20.75,0,0,0-1.61,2.79,8.82,8.82,0,0,1-2-2.92,5.77,5.77,0,0,1-3,2.79h0a18.88,18.88,0,0,0,.55-3.19h0A10.65,10.65,0,0,1,1019.41,594.83Z"/><polygon class="e" points="943.43 684.33 934.59 684.3 937.4 662.3 940.64 662.31 943.43 684.33"/><path class="f" d="M988.29,662.16c-13.64-3.61-21.49-25.07-21.49-25.07-2.4-6.83-10.84-20.21-28.15-20.26S912.09,637.36,912,637.38c-.37.94-7.63,19.41-22.95,28.09C899.9,667.88,972.66,675,988.29,662.16Z"/><path class="g" d="M957.43,652a21.17,21.17,0,0,1-1-11.6s4.23,6.68,14,9.92a24.94,24.94,0,0,1-1.59-8.73c-1.06-2.26-1.59-3.74-1.59-3.74-2.43-7-11-20.54-28.62-20.59s-27,20.88-27.07,20.9a48.9,48.9,0,0,1-2.13,4.65,22.17,22.17,0,0,1-2.74,5.91,37.47,37.47,0,0,0,15.9-9,72.41,72.41,0,0,1-3.77,12.84,49.19,49.19,0,0,0,13.59-10.06s1.57,10,5.84,12.23a31.51,31.51,0,0,0,5.7-12.19A47.29,47.29,0,0,0,957.43,652Z"/><path class="f" d="M977.46,632.93c-9.62-2.54-16.19-17.84-17.12-20.23-1.12,0-20.09-11.9-20.09-11.9L920,612s-6.56,16.66-18.58,23.49c8.29,1.84,12.19.15,12.19.15a23.77,23.77,0,0,1-3.47,10.15,33.62,33.62,0,0,0,14.22-8A65,65,0,0,1,921,649.18a44.22,44.22,0,0,0,12.15-9s1.4,8.93,5.22,10.92a28.33,28.33,0,0,0,5.1-10.9,42.08,42.08,0,0,0,12,8.5,18.84,18.84,0,0,1-.91-10.38s3.77,6,12.53,8.86c-1.36-3.27-1.9-8.83-.91-11.69C966.23,635.53,970.67,638.4,977.46,632.93Z"/><path class="g" d="M960.34,612.72c-1.12,0-20.09-11.9-20.09-11.9L920,612s-.44,1.09-1.28,2.83c-.63,2.76-1.75,6.14-3,7.73a36.5,36.5,0,0,0,14.92-6.8,49,49,0,0,1-2.83,10,59.54,59.54,0,0,0,11.49-7.87h.33a41.5,41.5,0,0,0,11.7,7.39,14.2,14.2,0,0,1-.6-9s3.65,5.05,12.4,7.5a16.31,16.31,0,0,1-1.59-8.39C960.92,614.13,960.53,613.17,960.34,612.72Z"/><path class="f" d="M960.47,621.09a14,14,0,0,1-1.35-8s3.73,1.23,8.85-2.89c-9.09-3.68-16.48-22.26-18.12-26.58-.74-2.08-5.43-7.58-10.55-7.6s-8.7,4.77-10.06,7.41c-2,4.7-10.73,24.17-18.68,28.68a30.67,30.67,0,0,0,10.52.7c-.54,2.5-1.6,5.73-2.78,7.19a32.6,32.6,0,0,0,13.27-6,45,45,0,0,1-2.51,8.89,52.2,52.2,0,0,0,10.22-7h.27A36.6,36.6,0,0,0,950,622.42a12.67,12.67,0,0,1-.54-8S952.69,618.9,960.47,621.09Z"/><path class="g" d="M949.85,583.62c-.74-2.09-5.43-7.59-10.55-7.6s-8.7,4.77-10.06,7.4c-.21.51-.51,1.17-.86,2a14.57,14.57,0,0,0,4.33-1.19,31.22,31.22,0,0,1-.88,5.14,9.25,9.25,0,0,0,4.77-4.49s1.45,3.43,3.18,4.72a35.42,35.42,0,0,1,2.58-4.49c.57,2.78,3.48,4.28,4.75,4.07-.71-1.72-1.43-2.78-.56-4.5a39,39,0,0,0,4,.64C950.23,584.63,950,584.05,949.85,583.62Z"/><path class="f" d="M923.56,583.29c5-2.82,10.57-10.38,16.1-27.3,5.45,16.76,11,25.09,15.36,26.25-2.81,2.27-6.38,1.5-9.3.91-.77,1.51-.13,2.47.49,4-1.11.19-3.69-1.14-4.19-3.6a29.14,29.14,0,0,0-2.29,4c-1.52-1.13-2.8-4.16-2.8-4.16a8.21,8.21,0,0,1-4.21,4h0a27.52,27.52,0,0,0,.77-4.54h0C930.05,584.26,927,584.06,923.56,583.29Z"/><path class="i" d="M1400,980H0V644.28s213.61-71.73,360.61-15.34,333.16-2.41,461.14,61.39,273-90.15,378.45-125.66S1400,587.9,1400,587.9Z"/><polygon class="e" points="145.25 684.28 138.27 684.28 140.44 666.89 143 666.89 145.25 684.28"/><path class="f" d="M180.66,666.67c-10.79-2.83-17-19.77-17-19.77C161.71,641.51,155,631,141.33,631s-21,16.28-21,16.3c-.29.74-6,15.36-18.08,22.25C110.82,671.38,168.33,676.87,180.66,666.67Z"/><path class="g" d="M156.25,658.72a16.72,16.72,0,0,1-.84-9.17,21.63,21.63,0,0,0,11.11,7.81,19.61,19.61,0,0,1-1.28-6.89c-.84-1.78-1.26-3-1.26-3-1.94-5.49-8.76-16.21-22.66-16.21S120,647.86,120,647.88a39.41,39.41,0,0,1-1.67,3.68,18.14,18.14,0,0,1-2.16,4.68,29.63,29.63,0,0,0,12.55-7.17,57.88,57.88,0,0,1-3,10.16,39,39,0,0,0,10.72-8s1.26,7.91,4.64,9.65a24.93,24.93,0,0,0,4.47-9.65A37.17,37.17,0,0,0,156.25,658.72Z"/><path class="f" d="M172,643.59c-7.61-2-12.84-14.07-13.58-16-.88.05-15.9-9.36-15.9-9.36l-16,8.87s-5.15,13.18-14.64,18.6c6.57,1.44,9.64.1,9.64.1a18.85,18.85,0,0,1-2.72,8,26.57,26.57,0,0,0,11.22-6.4,50.83,50.83,0,0,1-2.65,9.07,34.92,34.92,0,0,0,9.58-7.12s1.12,7.05,4.14,8.62a22.31,22.31,0,0,0,4-8.62,33.33,33.33,0,0,0,9.54,6.68,15,15,0,0,1-.74-8.19,19.26,19.26,0,0,0,9.93,7c-1.09-2.58-1.53-7-.75-9.24C163.17,645.67,166.68,647.93,172,643.59Z"/><path class="g" d="M158.46,627.66c-.88,0-15.9-9.36-15.9-9.36l-16,8.86s-.35.87-1,2.24a17.82,17.82,0,0,1-2.39,6.12A28.79,28.79,0,0,0,135,630.11a38.36,38.36,0,0,1-2.21,7.91,47.09,47.09,0,0,0,9.06-6.24h.26a33.22,33.22,0,0,0,9.27,5.82,11.22,11.22,0,0,1-.49-7.1s2.89,4,9.81,5.9a12.81,12.81,0,0,1-1.28-6.63C158.93,628.77,158.61,628,158.46,627.66Z"/><path class="f" d="M158.58,634.27A11.06,11.06,0,0,1,157.5,628s2.95,1,7-2.31c-7.2-2.88-13.07-17.55-14.38-21-.59-1.64-4.31-6-8.36-6s-6.86,3.79-7.93,5.87c-1.58,3.72-8.43,19.12-14.7,22.71a24.41,24.41,0,0,0,8.32.53,16.34,16.34,0,0,1-2.18,5.69,25.7,25.7,0,0,0,10.47-4.81,35.23,35.23,0,0,1-2,7,41.1,41.1,0,0,0,8-5.56H142a29,29,0,0,0,8.24,5.17,10,10,0,0,1-.44-6.31S152.43,632.56,158.58,634.27Z"/><path class="g" d="M150.11,604.68c-.59-1.65-4.31-6-8.36-6s-6.86,3.79-7.93,5.88c-.16.4-.4.92-.67,1.54a11.73,11.73,0,0,0,3.42-1,24.5,24.5,0,0,1-.69,4.06,7.31,7.31,0,0,0,3.76-3.55,11.14,11.14,0,0,0,2.53,3.72,27.45,27.45,0,0,1,2-3.56c.45,2.2,2.76,3.38,3.76,3.21-.56-1.35-1.14-2.19-.45-3.55a28.9,28.9,0,0,0,3.13.49C150.42,605.48,150.25,605,150.11,604.68Z"/><path class="f" d="M129.33,604.47c3.93-2.23,8.33-8.22,12.67-21.6,4.34,13.23,8.76,19.81,12.19,20.71-2.21,1.8-5,1.2-7.34.74-.61,1.2-.1,1.95.4,3.15a3.64,3.64,0,0,1-3.33-2.85,22.48,22.48,0,0,0-1.79,3.15,9.84,9.84,0,0,1-2.23-3.28,6.48,6.48,0,0,1-3.32,3.14h0a20.79,20.79,0,0,0,.6-3.58h0A11.86,11.86,0,0,1,129.33,604.47Z"/><polygon class="e" points="65.09 699.15 55.68 699.12 58.66 675.72 62.11 675.73 65.09 699.15"/><path class="f" d="M112.8,675.55c-14.51-3.84-22.87-26.66-22.87-26.66-2.55-7.27-11.53-21.5-30-21.54s-28.25,21.84-28.33,21.86c-.39,1-8.1,20.66-24.41,29.9C18.77,681.66,96.18,689.25,112.8,675.55Z"/><path class="g" d="M80,664.78a22.47,22.47,0,0,1-1.09-12.35S83.37,659.54,93.8,663a26.53,26.53,0,0,1-1.7-9.28c-1.12-2.4-1.69-4-1.69-4-2.59-7.39-11.73-21.85-30.45-21.89S31.24,650,31.17,650.06a52.71,52.71,0,0,1-2.27,5A23.78,23.78,0,0,1,26,661.3a39.76,39.76,0,0,0,16.91-9.6,77,77,0,0,1-4,13.66c5-2.26,10.33-6.48,14.46-10.7,0,0,1.68,10.65,6.22,13a33.57,33.57,0,0,0,6.05-13A50.27,50.27,0,0,0,80,664.78Z"/><path class="f" d="M101.27,644.46C91,641.76,84,625.48,83.05,623c-1.18,0-21.37-12.65-21.37-12.65L40.14,622.18s-7,17.72-19.75,25c8.82,2,13,.16,13,.16a25.35,25.35,0,0,1-3.69,10.8,35.72,35.72,0,0,0,15.12-8.57,68.5,68.5,0,0,1-3.6,12.2,46.85,46.85,0,0,0,12.92-9.56s1.5,9.5,5.56,11.62a30.17,30.17,0,0,0,5.42-11.59,44.67,44.67,0,0,0,12.82,9,20.15,20.15,0,0,1-1-11s4,6.34,13.34,9.42c-1.45-3.48-2-9.4-1-12.44C89.33,647.23,94.05,650.29,101.27,644.46Z"/><path class="g" d="M83.05,623c-1.18,0-21.37-12.66-21.37-12.66L40.14,622.2s-.46,1.16-1.35,3c-.67,2.93-1.87,6.53-3.24,8.23a38.84,38.84,0,0,0,15.87-7.24,51.82,51.82,0,0,1-3,10.63,63,63,0,0,0,12.22-8.37H61a44.42,44.42,0,0,0,12.45,7.86,15.08,15.08,0,0,1-.64-9.55s3.89,5.37,13.2,8a17.22,17.22,0,0,1-1.7-8.93C83.67,624.47,83.25,623.45,83.05,623Z"/><path class="f" d="M83.19,631.87a14.9,14.9,0,0,1-1.44-8.5s4,1.3,9.42-3.08c-9.68-3.9-17.54-23.68-19.28-28.26-.79-2.22-5.78-8.07-11.23-8.09S51.4,589,50,591.83c-2.14,5-11.41,25.71-19.87,30.51a32.73,32.73,0,0,0,11.2.75c-.58,2.66-1.7,6.09-3,7.64a34.6,34.6,0,0,0,14.12-6.43,47.7,47.7,0,0,1-2.67,9.45,55.64,55.64,0,0,0,10.87-7.46h.29a39.1,39.1,0,0,0,11.07,7,13.42,13.42,0,0,1-.57-8.5S74.92,629.54,83.19,631.87Z"/><path class="g" d="M71.89,592c-.79-2.22-5.78-8.07-11.23-8.09S51.4,589,50,591.81l-.91,2.06a15.25,15.25,0,0,0,4.6-1.26,31.9,31.9,0,0,1-.94,5.47,9.83,9.83,0,0,0,5.08-4.78s1.54,3.65,3.38,5a37.64,37.64,0,0,1,2.75-4.78c.6,3,3.7,4.56,5,4.34-.75-1.83-1.52-3-.59-4.79a40.72,40.72,0,0,0,4.21.67C72.29,593.08,72.07,592.47,71.89,592Z"/><path class="f" d="M43.91,591.66c5.3-3,11.25-11,17.13-29,5.8,17.83,11.72,26.69,16.34,27.92-3,2.42-6.78,1.59-9.89,1-.81,1.6-.13,2.62.53,4.23-1.19.2-3.94-1.21-4.46-3.84a31.18,31.18,0,0,0-2.44,4.23c-1.62-1.21-3-4.42-3-4.42a8.75,8.75,0,0,1-4.48,4.22h0a28.42,28.42,0,0,0,.82-4.82h0C50.82,592.7,47.57,592.48,43.91,591.66Z"/><polygon class="e" points="427.8 798.33 407.18 798.28 413.72 746.98 421.29 747 427.8 798.33"/><path class="f" d="M532.38,746.65c-31.81-8.42-50.1-58.45-50.1-58.45C476.69,672.27,457,641.08,416.64,641s-61.93,47.86-62.09,47.9c-.86,2.19-17.78,45.27-53.52,65.5C326.29,760,495.94,776.65,532.38,746.65Z"/><path class="g" d="M460.44,723A49.16,49.16,0,0,1,458,696s9.84,15.58,32.7,23.14A58.32,58.32,0,0,1,487,698.75c-2.46-5.28-3.71-8.72-3.71-8.72-5.66-16.22-25.7-47.9-66.73-48s-62.94,48.67-63.1,48.71a118,118,0,0,1-5,10.84,51.64,51.64,0,0,1-6.4,13.79c12.89-3.73,24.12-9.2,37.07-21a170,170,0,0,1-8.78,29.95c10.86-4.95,22.63-14.2,31.69-23.44,0,0,3.66,23.33,13.61,28.5,0,0,10.32-12.85,13.28-28.43A109.76,109.76,0,0,0,460.44,723Z"/><path class="f" d="M507.13,678.51c-22.42-5.93-37.76-41.61-39.93-47.17-2.59.12-46.82-27.74-46.82-27.74l-47.21,26s-15.29,38.84-43.32,54.76c19.35,4.31,28.43.36,28.43.36.12,3.36-3,16.6-8.08,23.67,11.51-3.33,21.57-8.24,33.14-18.78a151.59,151.59,0,0,1-7.89,26.75c9.73-4.43,20.24-12.71,28.32-20.95,0,0,3.27,20.83,12.16,25.47,0,0,9.23-11.48,11.9-25.4a98.11,98.11,0,0,0,28.09,19.8,44.06,44.06,0,0,1-2.12-24.19S462.59,705,483,711.77c-3.18-7.62-4.44-20.58-2.11-27.26C481,684.55,491.3,691.26,507.13,678.51Z"/><path class="g" d="M467.2,631.39c-2.59.11-46.82-27.75-46.82-27.75l-47.21,26s-1,2.55-3,6.6c-1.48,6.43-4.09,14.32-7.1,18,11.43-2.6,23.35-6.9,34.79-15.86-1.6,7.57-3.36,16.27-6.58,23.31a139.08,139.08,0,0,0,26.78-18.36h.77a96.92,96.92,0,0,0,27.29,17.25c-3.18-7.06-2.84-14.47-1.41-20.94,0,0,8.52,11.76,28.91,17.49a37.94,37.94,0,0,1-3.71-19.57C468.57,634.67,467.65,632.44,467.2,631.39Z"/><path class="f" d="M467.51,650.91c-4.83-10.38-3.14-18.64-3.14-18.64s8.69,2.86,20.63-6.75c-21.2-8.56-38.42-51.9-42.24-61.95-1.73-4.87-12.67-17.69-24.61-17.73S397.87,557,394.69,563.11c-4.68,11-25,56.35-43.55,66.87,14.61,3.24,24.54,1.64,24.54,1.64-1.27,5.83-3.72,13.36-6.49,16.75,10.17-2.32,20.8-6.14,30.94-14.09-1.43,6.76-3,14.45-5.85,20.72a121.48,121.48,0,0,0,23.82-16.34h.65A86,86,0,0,0,443,654c-2.82-6.29-2.52-12.89-1.25-18.63C441.8,635.33,449.39,645.79,467.51,650.91Z"/><path class="g" d="M442.76,563.53c-1.73-4.87-12.67-17.69-24.61-17.73s-20.28,11.13-23.46,17.27c-.49,1.18-1.18,2.71-2,4.53a33.53,33.53,0,0,0,10.09-2.76s-.71,8-2.06,12c4.06-2,8.76-5,11.13-10.46,0,0,3.38,8,7.42,11,1.34-3.48,6-10.47,6-10.47,1.32,6.48,8.11,10,11.07,9.51-1.65-4-3.34-6.49-1.31-10.5a88.08,88.08,0,0,0,9.23,1.49C443.65,565.88,443.16,564.54,442.76,563.53Z"/><path class="f" d="M381.45,562.75c11.6-6.57,24.65-24.19,37.55-63.64,12.69,39.08,25.68,58.51,35.8,61.21-6.54,5.29-14.87,3.48-21.67,2.13-1.79,3.52-.3,5.75,1.15,9.27-2.6.44-8.62-2.65-9.78-8.4,0,0-4.15,6.14-5.33,9.25-3.56-2.64-6.54-9.69-6.54-9.69-2.07,4.85-6.25,7.47-9.82,9.25h0c1.18-3.52,1.81-10.57,1.81-10.57h0C396.59,565,389.47,564.56,381.45,562.75Z"/><polygon class="e" points="620.09 688.92 612.74 688.9 615.06 670.6 617.77 670.6 620.09 688.92"/><path class="f" d="M657.4,670.47c-11.35-3-17.88-20.85-17.88-20.85-2-5.69-9-16.82-23.42-16.85S594,649.85,594,649.87c-.31.78-6.34,16.15-19.09,23.37C583.87,675.25,644.4,681.17,657.4,670.47Z"/><path class="g" d="M631.73,662a17.54,17.54,0,0,1-.86-9.66,22.79,22.79,0,0,0,11.67,8.25,20.66,20.66,0,0,1-1.32-7.25c-.88-1.88-1.33-3.11-1.33-3.11-2-5.79-9.17-17.09-23.81-17.12s-22.45,17.37-22.51,17.38c-.09.23-.67,1.72-1.77,3.87a18.88,18.88,0,0,1-2.28,4.92,31.16,31.16,0,0,0,13.22-7.51,61.15,61.15,0,0,1-3.13,10.69,41.07,41.07,0,0,0,11.3-8.37s1.31,8.32,4.86,10.17a26.33,26.33,0,0,0,4.74-10.15A39.28,39.28,0,0,0,631.73,662Z"/><path class="f" d="M648.39,646.16c-8-2.12-13.48-14.85-14.25-16.83-.93,0-16.71-9.89-16.71-9.89l-16.84,9.29s-5.46,13.86-15.45,19.54c6.9,1.54,10.14.13,10.14.13a19.79,19.79,0,0,1-2.88,8.44,28,28,0,0,0,11.82-6.7,54.26,54.26,0,0,1-2.81,9.54,36.68,36.68,0,0,0,10.1-7.47s1.17,7.43,4.34,9.08a23.45,23.45,0,0,0,4.24-9.06,34.94,34.94,0,0,0,10,7.06,15.71,15.71,0,0,1-.76-8.63A20.31,20.31,0,0,0,639.79,658c-1.14-2.72-1.59-7.35-.76-9.73C639.05,648.32,642.74,650.71,648.39,646.16Z"/><path class="g" d="M634.14,629.35c-.93,0-16.71-9.9-16.71-9.9l-16.84,9.29s-.37.91-1.06,2.36c-.53,2.29-1.46,5.11-2.53,6.44a30.48,30.48,0,0,0,12.41-5.67,41,41,0,0,1-2.35,8.32,49.46,49.46,0,0,0,9.55-6.55h.28a34.74,34.74,0,0,0,9.74,6.15,11.75,11.75,0,0,1-.51-7.47s3,4.19,10.32,6.24a13.69,13.69,0,0,1-1.33-7C634.62,630.52,634.29,629.72,634.14,629.35Z"/><path class="f" d="M634.25,636.31a11.59,11.59,0,0,1-1.13-6.65s3.11,1,7.36-2.41c-7.56-3-13.71-18.51-15.07-22.1-.62-1.74-4.52-6.31-8.78-6.32s-7.24,4-8.37,6.16c-1.67,3.92-8.92,20.11-15.53,23.87a25.66,25.66,0,0,0,8.75.58,17.1,17.1,0,0,1-2.31,6,27.17,27.17,0,0,0,11-5,37.38,37.38,0,0,1-2.09,7.39,43.87,43.87,0,0,0,8.5-5.83h.23a30.66,30.66,0,0,0,8.66,5.47,10.52,10.52,0,0,1-.45-6.65S627.78,634.49,634.25,636.31Z"/><path class="g" d="M625.41,605.14c-.62-1.74-4.52-6.32-8.78-6.33s-7.24,4-8.37,6.17c-.18.42-.42,1-.71,1.62a12.3,12.3,0,0,0,3.6-1,25.59,25.59,0,0,1-.74,4.27,7.63,7.63,0,0,0,4-3.73s1.21,2.85,2.65,3.92a29.17,29.17,0,0,1,2.15-3.74c.47,2.32,2.89,3.57,4,3.4-.59-1.44-1.19-2.32-.47-3.75a29.55,29.55,0,0,0,3.3.53C625.73,606,625.55,605.5,625.41,605.14Z"/><path class="f" d="M603.53,604.87c4.14-2.35,8.8-8.64,13.4-22.71C621.46,596.1,626.09,603,629.7,604c-2.33,1.89-5.3,1.24-7.73.76-.64,1.26-.1,2,.41,3.31a3.8,3.8,0,0,1-3.49-3,23.81,23.81,0,0,0-1.9,3.31,10.4,10.4,0,0,1-2.33-3.46,6.82,6.82,0,0,1-3.5,3.3h0a22.44,22.44,0,0,0,.64-3.77h0A12.59,12.59,0,0,1,603.53,604.87Z"/><polygon class="e" points="534.45 699.5 523.26 699.48 526.81 671.64 530.92 671.65 534.45 699.5"/><path class="f" d="M591.21,671.46C574,666.88,564,639.73,564,639.73c-3-8.64-13.71-25.58-35.63-25.63s-33.61,26-33.7,26c-.46,1.18-9.65,24.57-29,35.55C479.36,678.7,571.44,687.74,591.21,671.46Z"/><path class="g" d="M552.16,658.63a26.71,26.71,0,0,1-1.3-14.69s5.34,8.45,17.75,12.55a31.59,31.59,0,0,1-2-11c-1.34-2.86-2-4.73-2-4.73-3.08-8.8-14-26-36.22-26.05s-34.16,26.41-34.25,26.44c-.14.35-1,2.61-2.7,5.88a28.15,28.15,0,0,1-3.47,7.48,47.24,47.24,0,0,0,20.12-11.42,91.93,91.93,0,0,1-4.77,16.26c5.9-2.69,12.29-7.71,17.2-12.73,0,0,2,12.67,7.39,15.48,0,0,5.6-7,7.21-15.44A59.61,59.61,0,0,0,552.16,658.63Z"/><path class="f" d="M577.51,634.47c-12.17-3.22-20.49-22.58-21.67-25.6-1.41.06-25.42-15.06-25.42-15.06L504.8,607.94s-8.3,21.08-23.51,29.72c10.5,2.34,15.43.2,15.43.2.06,1.82-1.63,9-4.39,12.85a42.53,42.53,0,0,0,18-10.2A81.66,81.66,0,0,1,506,655c5.28-2.41,11-6.9,15.37-11.37,0,0,1.77,11.3,6.6,13.82a35.77,35.77,0,0,0,6.46-13.78,53.09,53.09,0,0,0,15.24,10.74,24,24,0,0,1-1.15-13.12s4.77,7.55,15.86,11.21c-1.72-4.14-2.41-11.18-1.14-14.8C563.3,637.75,568.92,641.39,577.51,634.47Z"/><path class="g" d="M555.84,608.89c-1.41.07-25.42-15-25.42-15L504.8,608s-.55,1.38-1.61,3.57c-.8,3.5-2.22,7.78-3.85,9.8a46.38,46.38,0,0,0,18.88-8.61c-.87,4.11-1.83,8.83-3.57,12.65a75.38,75.38,0,0,0,14.53-10h.42a52.7,52.7,0,0,0,14.81,9.36,17.88,17.88,0,0,1-.76-11.37s4.62,6.39,15.69,9.5a20.52,20.52,0,0,1-2-10.63C556.58,610.68,556.08,609.47,555.84,608.89Z"/><path class="f" d="M556,619.49a17.6,17.6,0,0,1-1.71-10.12s4.72,1.56,11.19-3.66c-11.5-4.65-20.84-28.17-22.92-33.62-.94-2.64-6.87-9.61-13.36-9.62s-11,6-12.73,9.37c-2.54,5.95-13.58,30.58-23.64,36.29a38.9,38.9,0,0,0,13.32.89c-.69,3.17-2,7.25-3.52,9.09a41.16,41.16,0,0,0,16.79-7.64c-.78,3.67-1.62,7.84-3.17,11.24a66.2,66.2,0,0,0,12.93-8.86h.35a46.8,46.8,0,0,0,13.16,8.32,16,16,0,0,1-.67-10.11S546.17,616.72,556,619.49Z"/><path class="g" d="M542.57,572.06c-.94-2.64-6.87-9.6-13.36-9.62s-11,6-12.73,9.38c-.26.63-.64,1.47-1.08,2.46a18.33,18.33,0,0,0,5.48-1.51,38.89,38.89,0,0,1-1.12,6.51,11.67,11.67,0,0,0,6-5.68s1.83,4.34,4,6a45.38,45.38,0,0,1,3.27-5.69c.72,3.52,4.41,5.42,6,5.16-.89-2.17-1.81-3.52-.71-5.69a47.25,47.25,0,0,0,5,.8C543.05,573.34,542.79,572.61,542.57,572.06Z"/><path class="f" d="M509.3,571.64c6.29-3.56,13.37-13.13,20.38-34.54,6.88,21.21,13.93,31.76,19.42,33.22-3.54,2.87-8.07,1.89-11.76,1.16-1,1.91-.16,3.12.63,5-1.41.24-4.68-1.44-5.31-4.56a36.42,36.42,0,0,0-2.89,5c-1.93-1.44-3.55-5.27-3.55-5.27a10.39,10.39,0,0,1-5.33,5h0a34.13,34.13,0,0,0,1-5.73h0C517.51,572.88,513.64,572.62,509.3,571.64Z"/><polygon class="e" points="296.56 744.83 280.64 744.79 285.69 705.19 291.54 705.21 296.56 744.83"/><path class="f" d="M377.29,704.94c-24.55-6.51-38.67-45.13-38.67-45.13-4.32-12.29-19.51-36.38-50.68-36.46s-47.8,36.95-47.93,37c-.66,1.69-13.72,34.95-41.31,50.57C218.2,715.23,349.17,728.09,377.29,704.94Z"/><path class="g" d="M321.76,686.69a38,38,0,0,1-1.86-20.89s7.6,12,25.25,17.85a45,45,0,0,1-2.87-15.7c-1.89-4.07-2.85-6.73-2.85-6.73-4.38-12.51-19.85-37-51.52-37.06s-48.59,37.58-48.72,37.61a85.77,85.77,0,0,1-3.83,8.36,40.31,40.31,0,0,1-4.94,10.65c10-2.88,18.62-7.11,28.62-16.24a131.71,131.71,0,0,1-6.78,23.12c8.38-3.83,17.47-11,24.46-18.1,0,0,2.83,18,10.51,22,0,0,8-9.92,10.25-21.95A84.8,84.8,0,0,0,321.76,686.69Z"/><path class="f" d="M357.8,652.33c-17.31-4.58-29.14-32.12-30.82-36.41-2,.09-36.15-21.42-36.15-21.42l-36.44,20.1s-11.8,30-33.44,42.27c14.94,3.32,22,.28,22,.28.08,2.59-2.32,12.81-6.24,18.27,8.88-2.57,16.65-6.36,25.58-14.5a116,116,0,0,1-6.09,20.65c7.51-3.42,15.63-9.81,21.86-16.17,0,0,2.52,16.08,9.39,19.66,0,0,7.12-8.86,9.18-19.61a75.72,75.72,0,0,0,21.69,15.29,34.07,34.07,0,0,1-1.64-18.67s6.79,10.74,22.56,15.94c-2.45-5.88-3.42-15.89-1.63-21C337.59,657,345.58,662.18,357.8,652.33Z"/><path class="g" d="M327,616c-2,.09-36.15-21.42-36.15-21.42l-36.44,20.1s-.79,2-2.3,5.09c-1.13,5-3.15,11.06-5.47,13.93,8.82-2,18-5.33,26.85-12.25-1.23,5.85-2.59,12.57-5.08,18a107.3,107.3,0,0,0,20.67-14.17h.6a74.77,74.77,0,0,0,21.06,13.31c-2.45-5.44-2.19-11.16-1.08-16.16,0,0,6.57,9.08,22.32,13.5a29.34,29.34,0,0,1-2.87-15.11C328,618.49,327.32,616.77,327,616Z"/><path class="f" d="M327.22,631c-3.73-8-2.43-14.39-2.43-14.39s6.71,2.21,15.93-5.2c-16.37-6.61-29.66-40.07-32.61-47.83-1.33-3.76-9.78-13.66-19-13.68S273.46,558.5,271,563.25c-3.61,8.46-19.31,43.5-33.62,51.62,11.28,2.5,18.94,1.27,18.94,1.27-1,4.5-2.87,10.31-5,12.93,7.85-1.8,16.05-4.74,23.88-10.88-1.11,5.22-2.31,11.15-4.51,16a93.93,93.93,0,0,0,18.38-12.61h.5a66.2,66.2,0,0,0,18.73,11.84c-2.18-4.85-1.94-9.95-1-14.38C307.37,619,313.23,627.08,327.22,631Z"/><path class="g" d="M308.11,563.57c-1.33-3.76-9.78-13.66-19-13.68s-15.65,8.58-18.11,13.33c-.37.9-.91,2.09-1.54,3.5a26.15,26.15,0,0,0,7.79-2.14,54.39,54.39,0,0,1-1.58,9.25c3.13-1.53,6.76-3.83,8.58-8.08,0,0,2.61,6.17,5.73,8.49a63.15,63.15,0,0,1,4.65-8.08c1,5,6.26,7.7,8.55,7.34-1.28-3.1-2.58-5-1-8.1a68.79,68.79,0,0,0,7.12,1.14C308.8,565.38,308.42,564.35,308.11,563.57Z"/><path class="f" d="M260.78,563c9-5.07,19-18.67,29-49.13,9.8,30.17,19.82,45.17,27.63,47.25-5,4.08-11.48,2.69-16.73,1.64-1.38,2.72-.23,4.44.89,7.17-2,.33-6.65-2-7.55-6.5a52.82,52.82,0,0,0-4.11,7.15c-2.75-2-5-7.48-5-7.48-1.6,3.74-4.83,5.77-7.58,7.14h0a48.94,48.94,0,0,0,1.4-8.16h0C272.47,564.72,267,564.36,260.78,563Z"/><polygon class="e" points="1348 608.45 1339.24 608.45 1341.96 586.65 1345.18 586.65 1348 608.45"/><path class="f" d="M1392.37,586.37c-13.53-3.54-21.35-24.77-21.35-24.77-2.39-6.76-10.79-20-27.94-20S1316.82,562,1316.76,562c-.37.93-7.51,19.25-22.66,27.89C1304.83,592.27,1376.92,599.16,1392.37,586.37Z"/><path class="g" d="M1361.78,576.41a20.89,20.89,0,0,1-1-11.49s4.2,6.6,13.92,9.79a24.43,24.43,0,0,1-1.6-8.64c-1-2.24-1.59-3.7-1.59-3.7-2.42-6.88-11-20.32-28.4-20.32s-26.68,20.75-26.75,20.77c-.11.27-.79,2-2.1,4.61a22.13,22.13,0,0,1-2.7,5.87,37.07,37.07,0,0,0,15.72-9,71.91,71.91,0,0,1-3.7,12.73,49.06,49.06,0,0,0,13.44-10s1.58,9.91,5.82,12.1a31.29,31.29,0,0,0,5.6-12.1A46.78,46.78,0,0,0,1361.78,576.41Z"/><path class="f" d="M1381.56,557.45c-9.53-2.49-16.08-17.63-17-20-1.1,0-19.92-11.73-19.92-11.73l-20,11.11s-6.45,16.52-18.34,23.31c8.22,1.81,12.08.12,12.08.12a23.63,23.63,0,0,1-3.41,10.07,33.32,33.32,0,0,0,14.06-8,64.34,64.34,0,0,1-3.32,11.37,43.77,43.77,0,0,0,12-8.93s1.41,8.85,5.19,10.81a27.92,27.92,0,0,0,5-10.81,41.71,41.71,0,0,0,12,8.38,18.73,18.73,0,0,1-.93-10.27s3.75,5.9,12.44,8.74c-1.36-3.23-1.91-8.74-.93-11.58C1370.45,560.05,1374.85,562.89,1381.56,557.45Z"/><path class="g" d="M1364.55,537.48c-1.1,0-19.92-11.73-19.92-11.73l-20,11.11s-.43,1.08-1.26,2.8c-.61,2.74-1.72,6.09-3,7.68a36.21,36.21,0,0,0,14.76-6.78,49.08,49.08,0,0,1-2.77,9.91,59.38,59.38,0,0,0,11.36-7.83h.32a41.13,41.13,0,0,0,11.62,7.29A14,14,0,0,1,1355,541s3.63,5,12.3,7.4a16,16,0,0,1-1.6-8.31C1365.13,538.87,1364.74,537.93,1364.55,537.48Z"/><path class="f" d="M1364.7,545.77a13.86,13.86,0,0,1-1.36-7.91s3.7,1.2,8.76-2.89c-9-3.62-16.38-22-18-26.27-.74-2.07-5.4-7.51-10.48-7.51s-8.6,4.75-9.94,7.37c-2,4.66-10.57,24-18.43,28.45a30.51,30.51,0,0,0,10.43.67c-.54,2.48-1.57,5.68-2.74,7.13a32.35,32.35,0,0,0,13.13-6,44,44,0,0,1-2.46,8.8,52,52,0,0,0,10.1-7h.27a36.63,36.63,0,0,0,10.32,6.48,12.56,12.56,0,0,1-.55-7.91S1357,543.62,1364.7,545.77Z"/><path class="g" d="M1354.09,508.68c-.74-2.07-5.4-7.5-10.48-7.5s-8.6,4.75-9.94,7.36c-.21.5-.5,1.15-.85,1.93a14.56,14.56,0,0,0,4.29-1.19,29.81,29.81,0,0,1-.86,5.09,9.1,9.1,0,0,0,4.71-4.45s1.45,3.39,3.17,4.66a33.91,33.91,0,0,1,2.54-4.46c.57,2.76,3.46,4.24,4.72,4-.71-1.7-1.43-2.75-.57-4.46a38.26,38.26,0,0,0,3.92.62C1354.47,509.68,1354.26,509.11,1354.09,508.68Z"/><path class="f" d="M1328,508.42c4.92-2.8,10.44-10.3,15.88-27.08,5.44,16.59,11,24.83,15.28,26-2.77,2.26-6.32,1.5-9.21.93-.75,1.5-.12,2.44.5,3.94-1.1.19-3.66-1.12-4.16-3.56a27.8,27.8,0,0,0-2.25,3.94c-1.52-1.12-2.79-4.11-2.79-4.11a8.16,8.16,0,0,1-4.17,3.94h0a26.65,26.65,0,0,0,.76-4.49h0C1334.48,509.37,1331.45,509.18,1328,508.42Z"/><polygon class="e" points="1247.52 627.08 1235.73 627.05 1239.46 597.72 1243.79 597.73 1247.52 627.08"/><path class="f" d="M1307.32,597.51c-18.19-4.82-28.66-33.42-28.66-33.42-3.2-9.11-14.45-27-37.54-27s-35.41,27.38-35.5,27.4c-.49,1.25-10.16,25.89-30.6,37.47C1189.47,605.17,1286.49,614.67,1307.32,597.51Z"/><path class="g" d="M1266.18,584a28.13,28.13,0,0,1-1.38-15.47s5.63,8.9,18.71,13.22a33.21,33.21,0,0,1-2.13-11.63c-1.41-3-2.12-5-2.12-5-3.24-9.27-14.71-27.38-38.17-27.44s-36,27.84-36.08,27.87a66.46,66.46,0,0,1-2.84,6.2,29.76,29.76,0,0,1-3.65,7.88,49.85,49.85,0,0,0,21.19-12,96.33,96.33,0,0,1-5,17.12c6.21-2.83,12.94-8.12,18.12-13.41,0,0,2.1,13.35,7.79,16.3,0,0,5.9-7.35,7.59-16.26A62.93,62.93,0,0,0,1266.18,584Z"/><path class="f" d="M1292.87,558.54c-12.82-3.39-21.6-23.79-22.84-27-1.48.06-26.78-15.86-26.78-15.86l-27,14.89s-8.74,22.21-24.77,31.32c11.07,2.46,16.26.2,16.26.2.07,1.93-1.71,9.5-4.62,13.54a44.7,44.7,0,0,0,18.95-10.74,85.66,85.66,0,0,1-4.51,15.29c5.57-2.53,11.58-7.26,16.2-12,0,0,1.87,11.91,7,14.56,0,0,5.27-6.56,6.79-14.52a56.28,56.28,0,0,0,16.07,11.31,25.29,25.29,0,0,1-1.21-13.83s5,8,16.71,11.81c-1.82-4.36-2.54-11.77-1.21-15.59C1277.9,562,1283.82,565.84,1292.87,558.54Z"/><path class="g" d="M1270,531.6c-1.48.07-26.78-15.86-26.78-15.86l-27,14.9s-.58,1.45-1.7,3.77c-.84,3.68-2.34,8.19-4.06,10.32a48.84,48.84,0,0,0,19.9-9.08c-.92,4.33-1.93,9.3-3.76,13.33a80,80,0,0,0,15.31-10.5h.44a55.47,55.47,0,0,0,15.6,9.86,18.94,18.94,0,0,1-.8-12s4.87,6.73,16.53,10a21.67,21.67,0,0,1-2.12-11.19C1270.81,533.48,1270.29,532.2,1270,531.6Z"/><path class="f" d="M1270.21,542.76a18.64,18.64,0,0,1-1.8-10.66s5,1.64,11.8-3.86c-12.13-4.89-22-29.67-24.17-35.42-1-2.78-7.24-10.12-14.07-10.13s-11.6,6.36-13.41,9.88c-2.68,6.27-14.3,32.22-24.9,38.24a41.14,41.14,0,0,0,14,.94c-.72,3.33-2.12,7.64-3.7,9.58a43.37,43.37,0,0,0,17.69-8.06c-.82,3.86-1.71,8.26-3.34,11.85a69.75,69.75,0,0,0,13.61-9.35h.37a49.28,49.28,0,0,0,13.88,8.77,16.93,16.93,0,0,1-.72-10.66S1259.85,539.84,1270.21,542.76Z"/><path class="g" d="M1256.05,492.8c-1-2.78-7.25-10.12-14.08-10.14s-11.6,6.37-13.41,9.88c-.28.68-.68,1.55-1.15,2.6a19.29,19.29,0,0,0,5.77-1.59,40.32,40.32,0,0,1-1.17,6.85c2.32-1.13,5-2.83,6.36-6,0,0,1.93,4.57,4.25,6.29a46.68,46.68,0,0,1,3.44-6c.75,3.71,4.64,5.71,6.33,5.43-.94-2.29-1.91-3.71-.75-6a52,52,0,0,0,5.28.85C1256.55,494.14,1256.28,493.38,1256.05,492.8Z"/><path class="f" d="M1221,492.36c6.64-3.75,14.09-13.83,21.47-36.4,7.26,22.35,14.69,33.46,20.48,35-3.74,3-8.51,2-12.4,1.22-1,2-.17,3.29.66,5.31-1.48.25-4.93-1.52-5.59-4.81a39.28,39.28,0,0,0-3,5.29c-2-1.51-3.73-5.54-3.73-5.54a10.93,10.93,0,0,1-5.62,5.29h0a36.31,36.31,0,0,0,1-6h0C1229.64,493.66,1225.57,493.39,1221,492.36Z"/><path class="c" d="M1400,980H0V748.51s90-14,167,2.57,150.2.2,203-2.57c66.64-3.5,220-52.39,348-14.71s343.74-29.5,394-16c114.34,30.62,288,30.76,288,30.76Z"/><polygon class="e" points="1134.78 880.85 1106.43 880.77 1115.42 810.23 1125.83 810.26 1134.78 880.85"/><path class="f" d="M1278.61,809.78c-43.75-11.59-68.9-80.39-68.9-80.39-7.69-21.91-34.75-64.81-90.28-65s-85.17,65.82-85.39,65.88c-1.18,3-24.45,62.26-73.59,90.08C995.18,828.12,1228.5,851,1278.61,809.78Z"/><path class="g" d="M1179.67,777.26a67.63,67.63,0,0,1-3.3-37.21s13.53,21.42,45,31.81c-3.09-7.53-5.07-18.39-5.1-28-3.38-7.25-5.09-12-5.09-12-7.8-22.3-35.36-65.87-91.78-66s-86.56,66.93-86.79,67a158.92,158.92,0,0,1-6.83,14.91c-2.14,6.73-5.16,13.85-8.8,19,17.73-5.13,33.18-12.66,51-28.93A234.32,234.32,0,0,1,1055.85,779c15-6.81,31.13-19.52,43.59-32.24,0,0,5,32.09,18.72,39.2,0,0,14.19-17.67,18.26-39.1C1148.75,759.64,1164.93,770.37,1179.67,777.26Z"/><path class="f" d="M1243.88,716.06c-30.83-8.16-51.92-57.23-54.9-64.87-3.57.16-64.4-38.16-64.4-38.16l-64.92,35.81s-21,53.41-59.58,75.31c26.61,5.92,39.1.49,39.1.49.15,4.63-4.13,22.83-11.12,32.55,15.83-4.58,29.66-11.33,45.58-25.83a207.63,207.63,0,0,1-10.85,36.79c13.38-6.09,27.84-17.47,39-28.8,0,0,4.49,28.64,16.73,35,0,0,12.68-15.78,16.35-34.93,11,11.44,25.4,21,38.64,27.22a60.57,60.57,0,0,1-2.92-33.25s12.09,19.13,40.19,28.4c-4.37-10.49-6.1-28.31-2.9-37.49C1207.88,724.37,1222.12,733.6,1243.88,716.06Z"/><path class="g" d="M1189,651.25c-3.57.16-64.4-38.16-64.4-38.16l-64.92,35.81s-1.41,3.5-4.09,9.06c-2,8.85-5.63,19.7-9.76,24.82,15.71-3.58,32.1-9.5,47.84-21.82-2.2,10.41-4.62,22.38-9.05,32.06a191.09,191.09,0,0,0,36.83-25.24h1.06c10.94,9.72,24.34,18.44,37.53,23.71-4.38-9.7-3.9-19.89-1.93-28.8,0,0,11.71,16.19,39.76,24.06-5.76-12.32-5.57-22.74-5.11-26.91C1190.86,655.76,1189.58,652.7,1189,651.25Z"/><path class="f" d="M1189.4,678.09c-6.64-14.27-4.33-25.63-4.33-25.63s12,3.93,28.38-9.28c-29.16-11.77-52.83-71.37-58.09-85.2-2.37-6.69-17.42-24.33-33.85-24.38s-27.89,15.3-32.26,23.76c-6.44,15.07-34.4,77.49-59.89,92,20.09,4.45,33.74,2.26,33.74,2.26-1.75,8-5.12,18.36-8.92,23,14-3.19,28.6-8.44,42.55-19.38-2,9.3-4.12,19.88-8,28.5a167,167,0,0,0,32.75-22.47h.9c9.72,8.66,21.67,16.43,33.36,21.09-3.88-8.64-3.46-17.72-1.72-25.63C1154,656.67,1164.47,671.07,1189.4,678.09Z"/><path class="g" d="M1155.36,557.92c-2.37-6.69-17.42-24.33-33.85-24.37s-27.89,15.3-32.26,23.75c-.67,1.61-1.62,3.73-2.74,6.23a46.23,46.23,0,0,0,13.88-3.81s-1,11-2.83,16.48c5.57-2.71,12-6.82,15.3-14.38,0,0,4.65,11,10.2,15.12,1.86-4.78,8.29-14.4,8.29-14.4,1.81,8.91,11.15,13.73,15.22,13.07-2.27-5.52-4.6-8.92-1.8-14.43a123.44,123.44,0,0,0,12.7,2C1156.58,561.16,1155.92,559.32,1155.36,557.92Z"/><path class="f" d="M1071,556.86c16-9,33.9-33.27,51.65-87.53,17.45,53.74,35.31,80.47,49.23,84.18-9,7.27-20.46,4.79-29.81,2.93-2.46,4.84-.41,7.91,1.58,12.76-3.56.6-11.85-3.65-13.44-11.57,0,0-5.71,8.45-7.34,12.74-4.89-3.64-9-13.34-9-13.34-2.86,6.68-8.61,10.28-13.51,12.72h0c1.62-4.84,2.49-14.53,2.49-14.53h0C1091.86,560,1082.06,559.34,1071,556.86Z"/><polygon class="e" points="197.93 924.48 165.82 924.39 176 844.48 187.8 844.51 197.93 924.48"/><path class="f" d="M360.86,844c-49.55-13.13-78.05-91.06-78.05-91.06-8.7-24.82-39.36-73.42-102.26-73.59S84.07,753.89,83.82,754c-1.34,3.4-27.7,70.52-83.37,102C39.8,864.74,304.1,890.7,360.86,844Z"/><path class="g" d="M248.78,807.14A76.6,76.6,0,0,1,245.05,765s15.33,24.27,50.94,36c-3.51-8.53-5.75-20.84-5.78-31.69-3.83-8.21-5.77-13.58-5.77-13.58-8.82-25.26-40.05-74.62-104-74.79s-98.06,75.82-98.31,75.89a180.83,180.83,0,0,1-7.74,16.88c-2.42,7.63-5.85,15.7-10,21.49,20.08-5.81,37.58-14.35,57.76-32.78a264.79,264.79,0,0,1-13.69,46.65c16.93-7.71,35.26-22.11,49.37-36.52,0,0,5.71,36.36,21.2,44.41,0,0,16.08-20,20.69-44.3C213.76,787.17,232.09,799.33,248.78,807.14Z"/><path class="f" d="M321.53,737.8c-34.93-9.24-58.82-64.82-62.2-73.48-4,.18-72.95-43.22-72.95-43.22l-73.55,40.56S89,722.16,45.35,747c30.14,6.7,44.29.56,44.29.56.17,5.23-4.68,25.85-12.59,36.87,17.93-5.19,33.6-12.84,51.62-29.26a234.75,234.75,0,0,1-12.29,41.67c15.16-6.9,31.54-19.79,44.13-32.62,0,0,5.08,32.44,19,39.67,0,0,14.36-17.88,18.52-39.57,12.46,13,28.77,23.8,43.77,30.84a68.66,68.66,0,0,1-3.31-37.67s13.7,21.67,45.53,32.17c-5-11.88-6.91-32.07-3.29-42.47C280.74,747.22,296.87,757.68,321.53,737.8Z"/><path class="g" d="M259.33,664.39c-4,.18-72.95-43.23-72.95-43.23l-73.55,40.56s-1.58,4-4.63,10.27c-2.3,10-6.37,22.32-11,28.11,17.8-4.05,36.37-10.75,54.2-24.71-2.5,11.79-5.25,25.35-10.26,36.31a216.23,216.23,0,0,0,41.72-28.59H184c12.4,11,27.58,20.9,42.51,26.87-5-11-4.42-22.54-2.18-32.63,0,0,13.26,18.34,45,27.25-6.53-14-6.31-25.75-5.79-30.48C261.46,669.5,260,666,259.33,664.39Z"/><path class="f" d="M259.81,694.8c-7.53-16.17-4.9-29-4.9-29s13.55,4.46,32.14-10.51c-33-13.34-59.85-80.85-65.8-96.52-2.69-7.58-19.74-27.56-38.35-27.61S151.31,548.45,146.36,558c-7.3,17.08-39,87.78-67.85,104.17,22.76,5,38.23,2.56,38.23,2.56-2,9.08-5.8,20.81-10.1,26.09,15.84-3.61,32.39-9.56,48.19-22-2.23,10.53-4.66,22.51-9.11,32.28a189.76,189.76,0,0,0,37.11-25.45h1c11,9.81,24.55,18.62,37.79,23.89-4.39-9.79-3.92-20.08-1.94-29C219.75,670.53,231.57,686.84,259.81,694.8Z"/><path class="g" d="M221.25,558.67c-2.69-7.58-19.74-27.56-38.35-27.61s-31.59,17.33-36.54,26.9c-.76,1.83-1.84,4.23-3.11,7.06A52.48,52.48,0,0,0,159,560.71s-1.1,12.43-3.2,18.67c6.32-3.08,13.65-7.73,17.33-16.3,0,0,5.27,12.45,11.56,17.13,2.1-5.42,9.38-16.31,9.38-16.31,2.06,10.1,12.64,15.55,17.25,14.81-2.57-6.26-5.21-10.11-2-16.35a137.59,137.59,0,0,0,14.38,2.31C222.63,562.33,221.88,560.25,221.25,558.67Z"/><path class="f" d="M125.73,557.47c18.07-10.24,38.4-37.69,58.5-99.15,19.78,60.87,40,91.15,55.77,95.35-10.18,8.24-23.17,5.43-33.76,3.32-2.79,5.48-.47,9,1.79,14.45-4,.69-13.43-4.13-15.23-13.1,0,0-6.46,9.57-8.31,14.43-5.54-4.12-10.18-15.11-10.18-15.11-3.23,7.56-9.74,11.65-15.3,14.41h0c1.84-5.49,2.82-16.46,2.82-16.46h0C149.32,561,138.22,560.28,125.73,557.47Z"/><g class="j"><path class="f" d="M1634.46,1038.24c-69-18.27-108.64-126.74-108.64-126.74C1513.71,877,1471,809.31,1383.49,809.07S1249.2,912.86,1248.85,913c-1.85,4.73-38.55,98.16-116,142C1187.58,1067.16,1555.46,1103.28,1634.46,1038.24Z"/><path class="g" d="M1478.46,987a106.64,106.64,0,0,1-5.2-58.68s21.34,33.78,70.91,50.16c-4.88-11.87-8-29-8.05-44.1-5.32-11.43-8-18.91-8-18.91-12.29-35.15-55.75-103.86-144.71-104.09S1246.91,916.89,1246.56,917a252.85,252.85,0,0,1-10.78,23.51c-3.36,10.61-8.14,21.84-13.87,29.9,27.95-8.09,52.31-20,80.39-45.62-4,21.68-11.19,44.84-19.06,64.93,23.57-10.74,49.09-30.78,68.72-50.83,0,0,8,50.6,29.52,61.81,0,0,22.38-27.87,28.79-61.66C1429.71,959.18,1455.22,976.11,1478.46,987Z"/><path class="f" d="M1579.71,890.48c-48.61-12.87-81.86-90.23-86.57-102.28-5.62.25-101.53-60.16-101.53-60.16l-102.37,56.45s-33.16,84.22-93.93,118.74c42,9.33,61.64.78,61.64.78.25,7.29-6.5,36-17.52,51.33,25-7.23,46.76-17.88,71.85-40.73-3.56,19.31-10,40-17.1,58,21.1-9.61,43.89-27.55,61.42-45.41,0,0,7.08,45.15,26.37,55.21,0,0,20-24.88,25.79-55.07,17.34,18,40,33.12,60.91,42.93a95.56,95.56,0,0,1-4.6-52.44s19.06,30.17,63.37,44.78c-6.89-16.53-9.63-44.64-4.58-59.11C1523,903.59,1545.39,918.14,1579.71,890.48Z"/><path class="g" d="M1493.14,788.29c-5.62.25-101.53-60.16-101.53-60.16l-102.37,56.45s-2.21,5.53-6.45,14.3c-3.2,14-8.86,31.06-15.38,39.12,24.78-5.64,50.62-15,75.43-34.39-3.46,16.41-7.29,35.28-14.27,50.54a301.28,301.28,0,0,0,58.07-39.8h1.66c17.26,15.33,38.39,29.09,59.18,37.4-6.9-15.3-6.15-31.37-3-45.41,0,0,18.46,25.51,62.68,37.93-9.08-19.43-8.77-35.85-8-42.44C1496.1,795.41,1494.1,790.58,1493.14,788.29Z"/><path class="f" d="M1493.81,830.62c-10.47-22.51-6.83-40.41-6.83-40.41s18.87,6.2,44.74-14.63c-46-18.57-83.3-112.54-91.58-134.34-3.75-10.55-27.47-38.37-53.37-38.44s-44,24.12-50.86,37.45c-10.17,23.77-54.25,122.18-94.44,145,31.68,7,53.2,3.57,53.2,3.57-2.75,12.64-8.07,29-14.06,36.32,22.06-5,45.09-13.31,67.09-30.56-3.11,14.66-6.5,31.34-12.68,44.93a263.28,263.28,0,0,0,51.64-35.42h1.41c15.33,13.65,34.18,25.91,52.6,33.25-6.11-13.63-5.46-27.94-2.7-40.4C1438.05,796.84,1454.5,819.54,1493.81,830.62Z"/><path class="g" d="M1440.14,641.15c-3.75-10.55-27.47-38.36-53.37-38.43s-44,24.12-50.86,37.44c-1.06,2.55-2.56,5.88-4.33,9.83a73.24,73.24,0,0,0,21.88-6s-1.54,17.29-4.46,26c8.79-4.28,19-10.75,24.12-22.68,0,0,7.33,17.32,16.1,23.84,2.91-7.54,13-22.71,13-22.71,2.86,14.06,17.6,21.65,24,20.62-3.58-8.71-7.25-14.07-2.84-22.76a192.94,192.94,0,0,0,20,3.22C1442.06,646.25,1441,643.35,1440.14,641.15Z"/><path class="f" d="M1307.19,639.47c25.16-14.24,53.45-52.45,81.43-138,27.52,84.73,55.68,126.87,77.62,132.72-14.17,11.47-32.25,7.56-47,4.62-3.89,7.63-.65,12.47,2.49,20.11-5.62,1-18.69-5.75-21.2-18.23,0,0-9,13.32-11.56,20.08-7.71-5.73-14.17-21-14.17-21-4.51,10.53-13.57,16.21-21.3,20h0c2.56-7.63,3.92-22.9,3.92-22.9h0C1340,644.39,1324.57,643.38,1307.19,639.47Z"/></g></svg>